<svg width="34" height="33" viewBox="0 0 34 33" fill="none" xmlns="http://www.w3.org/2000/svg">
<path d="M16.8624 0.285646C7.61877 0.281908 0.131897 7.76504 0.131897 17.0012C0.131897 24.3049 4.81539 30.5135 11.3379 32.7935C12.2163 33.0141 12.0817 32.3898 12.0817 31.9637V29.0669C7.0095 29.6612 6.80392 26.3047 6.46378 25.744C5.77602 24.5703 4.15006 24.2713 4.63598 23.7106C5.79097 23.1163 6.96838 23.8601 8.33269 25.8748C9.31948 27.3363 11.2445 27.0896 12.22 26.8466C12.4331 25.9683 12.8891 25.1833 13.5171 24.574C8.26167 23.6321 6.0713 20.4251 6.0713 16.6125C6.0713 14.7623 6.68057 13.0615 7.87668 11.6898C7.11416 9.42837 7.94769 7.49218 8.05983 7.20436C10.2315 7.01 12.4892 8.7593 12.6648 8.8976C13.8983 8.56493 15.3075 8.38926 16.8848 8.38926C18.4697 8.38926 19.8826 8.57241 21.1273 8.90881C21.5496 8.58736 23.6428 7.08475 25.6613 7.26791C25.7697 7.55572 26.5845 9.44706 25.8668 11.6785C27.0779 13.0541 27.6946 14.7697 27.6946 16.6237C27.6946 20.4438 25.4893 23.6545 20.219 24.5815C20.6704 25.0255 21.0288 25.5549 21.2733 26.1389C21.5179 26.7229 21.6436 27.3498 21.6431 27.9829V32.188C21.673 32.5244 21.6431 32.8571 22.2038 32.8571C28.8235 30.6256 33.5892 24.3722 33.5892 17.0049C33.5892 7.76504 26.0986 0.285646 16.8624 0.285646Z" fill="white"/>
</svg>
