<svg width="33" height="33" viewBox="0 0 33 33" fill="none" xmlns="http://www.w3.org/2000/svg">
<path d="M31.2686 0.285645H1.30286C0.582214 0.285645 0 0.867859 0 1.5885V31.5542C0 32.2749 0.582214 32.8571 1.30286 32.8571H31.2686C31.9892 32.8571 32.5714 32.2749 32.5714 31.5542V1.5885C32.5714 0.867859 31.9892 0.285645 31.2686 0.285645ZM9.6615 28.0406H4.82871V12.4959H9.6615V28.0406ZM7.24714 10.3706C6.69313 10.3706 6.15156 10.2063 5.69091 9.8985C5.23027 9.5907 4.87124 9.15322 4.65922 8.64138C4.44721 8.12954 4.39174 7.56632 4.49982 7.02295C4.60791 6.47959 4.87469 5.98047 5.26644 5.58872C5.65818 5.19698 6.1573 4.93019 6.70067 4.82211C7.24404 4.71403 7.80725 4.7695 8.31909 4.98151C8.83094 5.19352 9.26841 5.55255 9.57621 6.0132C9.884 6.47384 10.0483 7.01542 10.0483 7.56943C10.0442 9.11657 8.79021 10.3706 7.24714 10.3706ZM27.7549 28.0406H22.9262V20.4799C22.9262 18.6763 22.8936 16.3596 20.4141 16.3596C17.9021 16.3596 17.5153 18.3221 17.5153 20.3496V28.0406H12.6906V12.4959H17.3239V14.6211H17.3891C18.0324 13.3997 19.608 12.1091 21.9613 12.1091C26.8551 12.1091 27.7549 15.3296 27.7549 19.515V28.0406Z" fill="black"/>
</svg>
