<svg width="33" height="33" viewBox="0 0 33 33" fill="none" xmlns="http://www.w3.org/2000/svg">
<path d="M16.2816 8.21521C11.6574 8.21521 7.92549 11.9472 7.92549 16.5714C7.92549 21.1956 11.6574 24.9275 16.2816 24.9275C20.9058 24.9275 24.6378 21.1956 24.6378 16.5714C24.6378 11.9472 20.9058 8.21521 16.2816 8.21521ZM16.2816 22.0022C13.2912 22.0022 10.8508 19.5618 10.8508 16.5714C10.8508 13.5809 13.2912 11.1405 16.2816 11.1405C19.2721 11.1405 21.7125 13.5809 21.7125 16.5714C21.7125 19.5618 19.2721 22.0022 16.2816 22.0022ZM24.98 5.92552C23.9004 5.92552 23.0285 6.7974 23.0285 7.87706C23.0285 8.95671 23.9004 9.82859 24.98 9.82859C26.0597 9.82859 26.9316 8.96079 26.9316 7.87706C26.9319 7.62069 26.8816 7.36677 26.7837 7.12986C26.6857 6.89294 26.542 6.67768 26.3607 6.4964C26.1794 6.31512 25.9641 6.17138 25.7272 6.07342C25.4903 5.97546 25.2364 5.9252 24.98 5.92552ZM32.5702 16.5714C32.5702 14.3224 32.5906 12.0938 32.4643 9.84896C32.338 7.24148 31.7432 4.92735 29.8364 3.02063C27.9257 1.10984 25.6156 0.519085 23.0081 0.392785C20.7592 0.266485 18.5306 0.286856 16.2857 0.286856C14.0368 0.286856 11.8082 0.266485 9.56332 0.392785C6.95584 0.519085 4.6417 1.11392 2.73499 3.02063C0.824197 4.93142 0.23344 7.24148 0.107141 9.84896C-0.0191591 12.0979 0.00121184 14.3265 0.00121184 16.5714C0.00121184 18.8162 -0.0191591 21.0489 0.107141 23.2938C0.23344 25.9012 0.828271 28.2154 2.73499 30.1221C4.64578 32.0329 6.95584 32.6236 9.56332 32.7499C11.8123 32.8762 14.0408 32.8559 16.2857 32.8559C18.5347 32.8559 20.7632 32.8762 23.0081 32.7499C25.6156 32.6236 27.9297 32.0288 29.8364 30.1221C31.7472 28.2113 32.338 25.9012 32.4643 23.2938C32.5947 21.0489 32.5702 18.8203 32.5702 16.5714ZM28.9849 26.1783C28.6875 26.9198 28.329 27.4739 27.7545 28.0443C27.1801 28.6187 26.6301 28.9772 25.8886 29.2747C23.7455 30.1262 18.6569 29.9347 16.2816 29.9347C13.9064 29.9347 8.81367 30.1262 6.67065 29.2787C5.92915 28.9813 5.37506 28.6228 4.80467 28.0483C4.23021 27.4739 3.87168 26.9239 3.57427 26.1824C2.72684 24.0353 2.91833 18.9466 2.91833 16.5714C2.91833 14.1961 2.72684 9.10338 3.57427 6.96037C3.87168 6.21886 4.23021 5.66478 4.80467 5.09439C5.37913 4.52401 5.92915 4.1614 6.67065 3.86399C8.81367 3.01656 13.9064 3.20804 16.2816 3.20804C18.6569 3.20804 23.7496 3.01656 25.8926 3.86399C26.6341 4.1614 27.1882 4.51993 27.7586 5.09439C28.3331 5.66885 28.6916 6.21886 28.989 6.96037C29.8364 9.10338 29.645 14.1961 29.645 16.5714C29.645 18.9466 29.8364 24.0353 28.9849 26.1783Z" fill="black"/>
</svg>
