<svg width="60" height="60" viewBox="0 0 60 60" fill="none" xmlns="http://www.w3.org/2000/svg">
<path d="M48 60H12C8.8174 60 5.76516 58.7357 3.51472 56.4853C1.26428 54.2348 0 51.1826 0 48V12C0 8.8174 1.26428 5.76516 3.51472 3.51472C5.76516 1.26428 8.8174 0 12 0H48C51.1826 0 54.2348 1.26428 56.4853 3.51472C58.7357 5.76516 60 8.8174 60 12V48C60 51.1826 58.7357 54.2348 56.4853 56.4853C54.2348 58.7357 51.1826 60 48 60ZM12 6C10.4087 6 8.88258 6.63214 7.75736 7.75736C6.63214 8.88258 6 10.4087 6 12V48C6 49.5913 6.63214 51.1174 7.75736 52.2426C8.88258 53.3679 10.4087 54 12 54H48C49.5913 54 51.1174 53.3679 52.2426 52.2426C53.3679 51.1174 54 49.5913 54 48V12C54 10.4087 53.3679 8.88258 52.2426 7.75736C51.1174 6.63214 49.5913 6 48 6H12ZM41.286 44.328C39.9887 44.3803 38.6943 44.1678 37.4817 43.7036C36.2691 43.2395 35.1638 42.5332 34.233 41.628C32.2842 39.4063 31.2846 36.5088 31.449 33.558C31.3887 30.6901 32.4117 27.905 34.314 25.758C35.3085 24.7066 36.5141 23.8774 37.8516 23.3247C39.1891 22.772 40.6284 22.5083 42.075 22.551H42.774V16.551C42.774 16.083 43.155 15.702 43.623 15.699H47.574C47.7933 15.6908 48.0077 15.7658 48.174 15.909C48.2552 15.9859 48.3191 16.0791 48.3615 16.1826C48.4039 16.286 48.4238 16.3973 48.42 16.509V39.546C48.405 40.341 48.447 41.136 48.54 41.925V42C48.5446 42.1908 48.4855 42.3776 48.372 42.531C48.274 42.6514 48.1499 42.7478 48.009 42.813C45.927 43.8068 43.65 44.3253 41.343 44.331L41.286 44.328V44.328ZM38.538 28.98L38.523 28.998C37.5728 30.2485 37.0947 31.7944 37.173 33.363C37.0498 34.9974 37.5218 36.6213 38.502 37.935C39.303 38.817 40.458 39.297 41.649 39.237C42.027 39.243 42.405 39.204 42.774 39.123V27.576C42.494 27.5161 42.2083 27.4869 41.922 27.489C41.2819 27.4718 40.6461 27.5975 40.0607 27.857C39.4753 28.1165 38.9551 28.5032 38.538 28.989V28.98V28.98ZM30.675 43.98H26.322C26.0982 43.9946 25.8755 43.9388 25.6851 43.8205C25.4946 43.7021 25.346 43.5271 25.26 43.32L24.63 42L24.615 41.967L24 40.74L23.808 40.341C22.851 38.367 21.864 36.333 20.874 34.239C19.4975 37.2888 18.0804 40.32 16.623 43.332V43.362L16.608 43.389C16.5076 43.5573 16.3675 43.6984 16.2 43.8C16.0297 43.9017 15.8343 43.9536 15.636 43.95H11.523C11.351 43.9584 11.1809 43.9106 11.0385 43.8137C10.8962 43.7168 10.7892 43.5761 10.734 43.413C10.6979 43.2888 10.6907 43.1579 10.7131 43.0305C10.7354 42.9031 10.7867 42.7825 10.863 42.678L17.55 29.895L11.082 16.953C10.995 16.8271 10.9454 16.6791 10.9391 16.5262C10.9327 16.3733 10.9698 16.2217 11.046 16.089C11.1193 15.9686 11.2224 15.8692 11.3454 15.8004C11.4684 15.7315 11.6071 15.6956 11.748 15.696H16.05C16.259 15.6848 16.4669 15.7327 16.65 15.834C16.836 15.948 16.98 16.119 17.058 16.323C18.666 19.698 20.022 22.623 21.207 25.218C22.68 21.918 24.246 18.564 25.296 16.341L25.311 16.308L25.329 16.278V16.245C25.4042 16.1167 25.4982 16.0004 25.608 15.9C25.7936 15.7451 26.0293 15.663 26.271 15.669H30.3C30.4541 15.6649 30.606 15.7055 30.7375 15.7859C30.869 15.8663 30.9744 15.983 31.041 16.122C31.094 16.2493 31.1154 16.3876 31.1034 16.525C31.0914 16.6624 31.0463 16.7948 30.972 16.911L24.501 29.472L31.347 42.672C31.419 42.7866 31.4642 42.916 31.4793 43.0506C31.4943 43.1851 31.4789 43.3213 31.434 43.449C31.3775 43.6043 31.2741 43.7383 31.1381 43.8323C31.0021 43.9264 30.8403 43.9759 30.675 43.974V43.98V43.98Z" fill="#665C46"/>
</svg>
