<svg width="62" height="61" viewBox="0 0 62 61" fill="none" xmlns="http://www.w3.org/2000/svg">
<path d="M24.9309 27.3943V18.124H31.6196C35.2759 18.124 37.414 19.8413 37.414 22.7723C37.414 25.786 35.1444 27.3943 30.7854 27.3943H24.9309ZM24.9309 41.5308H32.063C36.5122 41.5308 38.8645 39.7271 38.8645 36.3564C38.8645 33.0308 36.422 31.291 31.7774 31.291H24.9309V41.5308Z" fill="#665C46"/>
<path d="M16.0137 0.619629C12.0273 0.619629 8.20416 2.20323 5.38534 5.02205C2.56651 7.84088 0.98291 11.664 0.98291 15.6505V45.7121C0.98291 49.6985 2.56651 53.5217 5.38534 56.3405C8.20416 59.1593 12.0273 60.7429 16.0137 60.7429H46.0754C50.0618 60.7429 53.8849 59.1593 56.7038 56.3405C59.5226 53.5217 61.1062 49.6985 61.1062 45.7121V15.6505C61.1062 11.664 59.5226 7.84088 56.7038 5.02205C53.8849 2.20323 50.0618 0.619629 46.0754 0.619629L16.0137 0.619629ZM19.9969 45.7121V13.9407H32.7693C38.7328 13.9407 42.3252 16.9807 42.3252 21.8695C42.3252 25.1913 39.8827 28.1636 36.7525 28.6934V29.0692C41.0476 29.5089 43.9072 32.5676 43.9072 36.7086C43.9072 42.3001 39.8338 45.7121 33.0549 45.7121H19.9969Z" fill="#593F7A"/>
</svg>
