<svg width="65" height="19" viewBox="0 0 65 19" fill="none" xmlns="http://www.w3.org/2000/svg">
<path d="M0.423008 14.8157V7.51466H9.45496V7.0876H0.423008V0.426935H10.026V0H0V15.2427H10.1105V14.8157H0.423135H0.423008ZM18.2542 4.2696L14.5104 9.2438L10.8509 4.26973H10.301L14.2565 9.56413L9.92012 15.2425H10.4278L14.5101 9.88407L18.6136 15.2425H19.1424L14.7851 9.56387L18.7616 4.26947H18.2541L18.2542 4.2696ZM20.4117 19V12.1687H20.4539C20.7078 13.1649 21.2084 13.9655 21.9558 14.5704C22.7032 15.1751 23.6549 15.4777 24.8112 15.4777C25.5586 15.4777 26.2214 15.3247 26.7996 15.0187C27.3777 14.7127 27.8606 14.2964 28.2485 13.7698C28.6362 13.2432 28.9324 12.6312 29.1369 11.9338C29.3413 11.2365 29.4436 10.5035 29.4436 9.73506C29.4436 8.9095 29.3377 8.14802 29.1262 7.45073C28.9147 6.75331 28.608 6.1484 28.2062 5.63613C27.8043 5.12373 27.3178 4.72511 26.7466 4.44066C26.1756 4.15595 25.5304 4.0136 24.8112 4.0136C24.2613 4.0136 23.7501 4.09547 23.2777 4.2591C22.8054 4.42285 22.3859 4.654 22.0193 4.95293C21.6505 5.25416 21.3295 5.6105 21.0674 6.00963C20.7995 6.41529 20.595 6.86004 20.4539 7.34399H20.4117V4.2696H19.9886V19H20.4117V19ZM24.8112 15.0719C23.4858 15.0719 22.4211 14.6129 21.6173 13.695C20.8136 12.777 20.4117 11.4569 20.4117 9.7348C20.4117 9.02316 20.5104 8.34713 20.7078 7.70673C20.9052 7.06633 21.1908 6.50409 21.5644 6.02026C21.9381 5.53631 22.4 5.15204 22.9498 4.86746C23.4998 4.58276 24.1203 4.4404 24.8112 4.4404C25.5163 4.4404 26.1333 4.58276 26.6621 4.86746C27.1908 5.15204 27.628 5.5399 27.9735 6.0309C28.3189 6.5219 28.5798 7.08414 28.7562 7.71737C28.9324 8.35072 29.0205 9.02316 29.0205 9.7348C29.0205 10.3753 28.9395 11.0123 28.7772 11.6455C28.6151 12.2789 28.3648 12.8481 28.0263 13.3535C27.688 13.8586 27.2544 14.2713 26.7255 14.5916C26.1967 14.9118 25.5586 15.0719 24.8112 15.0719V15.0719ZM31.7703 15.2427V9.03033C31.7703 8.4326 31.8548 7.84896 32.0242 7.2798C32.1933 6.71051 32.4542 6.20875 32.8067 5.77476C33.1593 5.34065 33.6069 4.99906 34.1499 4.74997C34.6927 4.50088 35.3379 4.39773 36.0853 4.4404V4.01347C35.4366 3.99937 34.8691 4.07036 34.3826 4.22693C33.896 4.38351 33.4765 4.59698 33.124 4.86746C32.7714 5.13782 32.4895 5.45444 32.278 5.81743C32.0666 6.17985 31.9098 6.57194 31.8125 6.98087H31.7703V4.2696H31.3473V15.2428H31.7703V15.2427ZM36.614 9.84153H45.7093C45.7377 9.08722 45.6636 8.36149 45.4873 7.66407C45.3111 6.96664 45.029 6.34751 44.6413 5.8068C44.2534 5.26595 43.7529 4.83184 43.1394 4.50447C42.526 4.17709 41.7963 4.01347 40.9503 4.01347C40.3438 4.01347 39.7516 4.1416 39.1734 4.39786C38.5953 4.654 38.0876 5.0275 37.6505 5.5185C37.2134 6.0095 36.8608 6.61082 36.593 7.32259C36.3251 8.03411 36.191 8.84531 36.191 9.7562C36.191 10.5674 36.2827 11.3253 36.466 12.0298C36.6493 12.7342 36.9313 13.3463 37.312 13.8658C37.6929 14.3852 38.1829 14.7873 38.7821 15.0719C39.3814 15.3566 40.1041 15.4918 40.9503 15.4775C42.1911 15.4775 43.2346 15.1252 44.0807 14.4208C44.9268 13.7162 45.4274 12.7236 45.5825 11.4427H45.1595C44.9762 12.6525 44.5072 13.5598 43.7529 14.1646C42.9984 14.7695 42.0502 15.0719 40.9079 15.0719C40.1323 15.0719 39.4766 14.9367 38.9407 14.6663C38.405 14.396 37.9677 14.0258 37.6293 13.5562C37.291 13.0865 37.0406 12.535 36.8785 11.9016C36.7162 11.2684 36.6281 10.5816 36.614 9.84153ZM45.2863 9.4146H36.6142C36.6563 8.64607 36.7974 7.95582 37.0371 7.34386C37.2769 6.73178 37.5906 6.20875 37.9784 5.77476C38.3661 5.34065 38.8174 5.00982 39.3321 4.782C39.8468 4.55431 40.4003 4.4404 40.9925 4.4404C41.6976 4.4404 42.3179 4.57212 42.8539 4.83543C43.3897 5.09874 43.8374 5.45815 44.1971 5.91353C44.5566 6.36891 44.828 6.89912 45.0114 7.5039C45.1947 8.10881 45.2863 8.74575 45.2863 9.4146ZM54.4875 7.51466H54.9105C54.9105 6.29062 54.558 5.40113 53.853 4.84607C53.1478 4.291 52.1889 4.01347 50.9763 4.01347C50.2993 4.01347 49.7283 4.09893 49.2629 4.26973C48.7976 4.4404 48.4169 4.66104 48.1207 4.9314C47.8246 5.20176 47.6131 5.50069 47.4862 5.82807C47.3592 6.15544 47.2958 6.4686 47.2958 6.7674C47.2958 7.36513 47.4015 7.84191 47.6131 8.19773C47.8246 8.55355 48.156 8.83109 48.6072 9.03033C48.9175 9.17256 49.2699 9.30069 49.6648 9.41473C50.0596 9.52851 50.518 9.64946 51.0397 9.77747C51.505 9.89151 51.9633 10.0053 52.4146 10.1191C52.8658 10.233 53.2642 10.386 53.6096 10.578C53.9552 10.7702 54.2372 11.0157 54.4558 11.3147C54.6743 11.6135 54.7836 12.0049 54.7836 12.4887C54.7836 12.9585 54.6744 13.357 54.4558 13.6842C54.239 14.0099 53.9538 14.2833 53.6203 14.4849C53.2818 14.6912 52.9045 14.8406 52.4886 14.9331C52.0726 15.0256 51.6673 15.0719 51.2724 15.0719C49.9892 15.0719 49.0056 14.7837 48.3217 14.2074C47.6378 13.6309 47.2959 12.7236 47.2959 11.4853H46.8727C46.8727 12.866 47.2429 13.8764 47.9832 14.5169C48.7236 15.1573 49.82 15.4775 51.2724 15.4775C51.7377 15.4775 52.2066 15.4241 52.6791 15.3174C53.1513 15.2106 53.5745 15.0364 53.9481 14.7943C54.3185 14.5557 54.6297 14.2344 54.8576 13.8551C55.0903 13.4707 55.2067 13.0011 55.2067 12.4461C55.2067 11.9194 55.1044 11.4925 54.9 11.1651C54.6955 10.8379 54.4276 10.5674 54.0961 10.3539C53.7648 10.1405 53.3912 9.97325 52.9751 9.8523C52.5568 9.73063 52.1372 9.61317 51.7165 9.49993C51.1988 9.36284 50.6806 9.22766 50.1618 9.0944C49.7178 8.98049 49.3053 8.84531 48.9246 8.68873C48.5579 8.53216 48.2653 8.30805 48.0467 8.0163C47.8281 7.72454 47.7189 7.30824 47.7189 6.7674C47.7189 6.66784 47.7471 6.48987 47.8034 6.23373C47.8598 5.97747 47.9939 5.71775 48.2054 5.45444C48.4169 5.19125 48.7411 4.95639 49.1783 4.74997C49.6154 4.54368 50.2148 4.4404 50.9763 4.4404C51.498 4.4404 51.9738 4.49742 52.404 4.6112C52.8341 4.72511 53.2043 4.90654 53.5144 5.15563C53.8247 5.40472 54.0644 5.72133 54.2336 6.1056C54.4028 6.49 54.4875 6.9596 54.4875 7.51466V7.51466ZM64.2808 7.51466H64.7038C64.7038 6.29062 64.3514 5.40113 63.6463 4.84607C62.9412 4.291 61.9823 4.01347 60.7695 4.01347C60.0928 4.01347 59.5216 4.09893 59.0563 4.26973C58.5909 4.4404 58.2102 4.66104 57.9141 4.9314C57.6179 5.20176 57.4064 5.50069 57.2795 5.82807C57.1525 6.15544 57.0892 6.4686 57.0892 6.7674C57.0892 7.36513 57.1949 7.84191 57.4066 8.19773C57.6179 8.55355 57.9494 8.83109 58.4006 9.03033C58.7109 9.17256 59.0633 9.30069 59.4581 9.41473C59.8529 9.52851 60.3112 9.64946 60.833 9.77747C61.2984 9.89151 61.7567 10.0053 62.2079 10.1191C62.6592 10.233 63.0575 10.386 63.4031 10.578C63.7485 10.7702 64.0306 11.0157 64.2491 11.3147C64.4677 11.6135 64.577 12.0049 64.577 12.4887C64.577 12.9585 64.4677 13.357 64.2491 13.6842C64.0324 14.0099 63.7471 14.2833 63.4137 14.4849C63.0751 14.6912 62.698 14.8406 62.2819 14.9331C61.866 15.0256 61.4605 15.0719 61.0657 15.0719C59.7825 15.0719 58.799 14.7837 58.1151 14.2074C57.4311 13.6309 57.0892 12.7236 57.0892 11.4853H56.6662C56.6662 12.866 57.0362 13.8764 57.7766 14.5169C58.5169 15.1573 59.6133 15.4775 61.0657 15.4775C61.5311 15.4775 62 15.4241 62.4724 15.3174C62.9446 15.2106 63.3678 15.0364 63.7415 14.7943C64.112 14.5557 64.4231 14.2344 64.651 13.8551C64.8837 13.4707 65 13.0011 65 12.4461C65 11.9194 64.8978 11.4925 64.6933 11.1651C64.4889 10.8379 64.221 10.5674 63.8895 10.3539C63.5582 10.1405 63.1844 9.97325 62.7685 9.8523C62.3502 9.73062 61.9306 9.61317 61.5099 9.49993C60.9922 9.36284 60.474 9.22766 59.9553 9.0944C59.5111 8.98049 59.0986 8.84531 58.7179 8.68873C58.3512 8.53216 58.0586 8.30805 57.8401 8.0163C57.6215 7.72454 57.5122 7.30824 57.5122 6.7674C57.5122 6.66784 57.5404 6.48987 57.5969 6.23373C57.6532 5.97747 57.7873 5.71775 57.9987 5.45444C58.2102 5.19125 58.5345 4.95639 58.9716 4.74997C59.4089 4.54368 60.0081 4.4404 60.7697 4.4404C61.2914 4.4404 61.7673 4.49742 62.1974 4.6112C62.6275 4.72511 62.9976 4.90654 63.3078 5.15563C63.6181 5.40472 63.8578 5.72133 64.027 6.1056C64.1963 6.49 64.2809 6.9596 64.2809 7.51466H64.2808Z" fill="#593F7A"/>
</svg>
