<svg width="40" height="60" viewBox="0 0 40 60" fill="none" xmlns="http://www.w3.org/2000/svg">
<path fill-rule="evenodd" clip-rule="evenodd" d="M11.0377 0C4.92016 0 0.000158762 5.1325 0.000158762 11.42C0.000158762 15.2425 1.82016 18.6375 4.61766 20.71C3.17586 21.7902 2.00718 23.1932 1.20532 24.8065C0.403456 26.4198 -0.00929357 28.1985 0.000158762 30C0.000158762 33.825 1.82016 37.2175 4.61766 39.29C3.17586 40.3702 2.00718 41.7732 1.20532 43.3865C0.403456 44.9998 -0.00929357 46.7785 0.000158762 48.58C0.000158762 54.8675 4.92016 60 11.0377 60C17.1527 60 22.0752 54.8675 22.0752 48.58V38.925C24.0085 40.537 26.4455 41.4207 28.9627 41.4225C35.0802 41.42 40.0002 36.2875 40.0002 30C40.0002 26.175 38.1827 22.7825 35.3827 20.71C36.8245 19.6298 37.9931 18.2268 38.795 16.6135C39.5969 15.0002 40.0096 13.2215 40.0002 11.42C40.0002 5.1325 35.0802 0 28.9627 0H11.0377V0ZM4.14766 11.42C4.14766 7.4425 7.25266 4.2575 11.0377 4.2575H17.9252V18.5825H11.0377C7.25266 18.5825 4.14766 15.395 4.14766 11.42V11.42ZM28.9627 18.58H22.0752V4.255H28.9627C32.7502 4.255 35.8527 7.4425 35.8527 11.42C35.8527 15.395 32.7502 18.58 28.9627 18.58ZM4.15016 30C4.15016 26.025 7.25516 22.8375 11.0402 22.8375H17.9277V37.1625H11.0377C7.25016 37.1625 4.14766 33.975 4.14766 30H4.15016ZM22.0752 30C22.0752 26.025 25.1802 22.8375 28.9652 22.8375C32.7527 22.8375 35.8552 26.0225 35.8552 30C35.8552 33.975 32.7527 37.1625 28.9652 37.1625C25.1802 37.1625 22.0777 33.9775 22.0777 30H22.0752ZM4.15016 48.58C4.15016 44.605 7.25516 41.42 11.0402 41.42H17.9277V48.58C17.9277 52.5575 14.8277 55.7425 11.0402 55.7425C7.25516 55.7425 4.15016 52.5575 4.15016 48.58Z" fill="#665C46"/>
</svg>
