<svg width="43" height="60" viewBox="0 0 43 60" fill="none" xmlns="http://www.w3.org/2000/svg">
<path d="M1.42244 39.1853L7.27555 1.15171C7.31852 0.870048 7.4481 0.609161 7.64597 0.405968C7.84384 0.202776 8.09997 0.0675698 8.37811 0.0194817C8.65626 -0.0286064 8.94234 0.0128591 9.19586 0.138011C9.44939 0.263163 9.65752 0.465663 9.79081 0.716855L16.0864 12.65L1.42244 39.1853ZM43 48.4133L37.426 13.4117C37.3841 13.1667 37.2765 12.9381 37.115 12.7505C36.9535 12.5628 36.7442 12.4235 36.5098 12.3475C36.2754 12.2714 36.0249 12.2617 35.7854 12.3192C35.546 12.3768 35.3267 12.4995 35.1513 12.674L0 48.4133L19.451 59.4827C20.6715 60.1724 22.1593 60.1724 23.3798 59.4827L43 48.4133ZM27.1927 17.8683L22.6878 9.1621C22.574 8.94354 22.4031 8.76056 22.1938 8.63291C21.9844 8.50526 21.7445 8.43779 21.5 8.43779C21.2555 8.43779 21.0156 8.50526 20.8062 8.63291C20.5969 8.76056 20.426 8.94354 20.3122 9.1621L0.53156 44.9614L27.1927 17.8683Z" fill="#665C46"/>
</svg>
