<svg width="75" height="61" viewBox="0 0 75 61" fill="none" xmlns="http://www.w3.org/2000/svg">
<path d="M0.481578 55.7742V47.508H10.7641V47.0245H0.481578V39.4834H11.4142V39H0V56.2576H11.5105V55.7742H0.481723H0.481578ZM20.7817 43.834L16.5195 49.4657L12.3534 43.8341H11.7273L16.2304 49.8284L11.2937 56.2575H11.8717L16.5192 50.1907L21.1909 56.2575H21.7929L16.8323 49.8281L21.3594 43.8339H20.7816L20.7817 43.834ZM23.2379 60.5116V52.7772H23.286C23.5751 53.9052 24.145 54.8116 24.9958 55.4964C25.8467 56.1812 26.9302 56.5237 28.2466 56.5237C29.0975 56.5237 29.8521 56.3505 30.5103 56.004C31.1685 55.6576 31.7183 55.1863 32.1598 54.59C32.6012 53.9938 32.9384 53.3009 33.1712 52.5113C33.4039 51.7219 33.5204 50.8919 33.5204 50.0219C33.5204 49.0873 33.3999 48.2251 33.1591 47.4356C32.9183 46.646 32.5691 45.9612 32.1117 45.3812C31.6541 44.801 31.1002 44.3497 30.45 44.0277C29.7999 43.7053 29.0654 43.5442 28.2466 43.5442C27.6205 43.5442 27.0386 43.6369 26.5008 43.8221C25.963 44.0075 25.4855 44.2692 25.0681 44.6077C24.6482 44.9487 24.2828 45.3522 23.9844 45.804C23.6794 46.2633 23.4466 46.7669 23.286 47.3148H23.2379V43.834H22.7563V60.5116H23.2379ZM28.2466 56.0642C26.7377 56.0642 25.5255 55.5446 24.6105 54.5053C23.6955 53.466 23.2379 51.9714 23.2379 50.0217C23.2379 49.2159 23.3503 48.4506 23.5751 47.7255C23.7998 47.0004 24.1249 46.3639 24.5502 45.8161C24.9757 45.2682 25.5015 44.8331 26.1275 44.5109C26.7536 44.1886 27.4601 44.0274 28.2466 44.0274C29.0493 44.0274 29.7518 44.1886 30.3537 44.5109C30.9557 44.8331 31.4535 45.2722 31.8467 45.8281C32.24 46.384 32.537 47.0206 32.7378 47.7375C32.9384 48.4546 33.0387 49.2159 33.0387 50.0217C33.0387 50.7469 32.9465 51.468 32.7618 52.1849C32.5772 52.902 32.2922 53.5466 31.9069 54.1187C31.5217 54.6906 31.0281 55.1578 30.426 55.5205C29.8239 55.883 29.0975 56.0642 28.2466 56.0642ZM36.1692 56.2576V49.2241C36.1692 48.5473 36.2655 47.8865 36.4583 47.2421C36.6508 46.5976 36.9478 46.0295 37.3492 45.5381C37.7505 45.0466 38.2602 44.6599 38.8783 44.3779C39.4963 44.0959 40.2309 43.9791 41.0817 44.0274V43.544C40.3432 43.5281 39.6971 43.6084 39.1433 43.7857C38.5893 43.963 38.1117 44.2047 37.7104 44.5109C37.309 44.817 36.988 45.1755 36.7472 45.5864C36.5066 45.9968 36.328 46.4407 36.2174 46.9037H36.1692V43.834H35.6877V56.2578H36.1692V56.2576ZM41.6837 50.1425H52.0383C52.0706 49.2885 51.9863 48.4668 51.7855 47.6772C51.5849 46.8876 51.2638 46.1866 50.8224 45.5744C50.3808 44.9621 49.811 44.4706 49.1126 44.0999C48.4142 43.7293 47.5834 43.544 46.6203 43.544C45.9299 43.544 45.2556 43.6891 44.5974 43.9792C43.9392 44.2692 43.3613 44.6921 42.8636 45.248C42.366 45.8039 41.9646 46.4847 41.6597 47.2906C41.3547 48.0961 41.2021 49.0146 41.2021 50.0459C41.2021 50.9643 41.3064 51.8224 41.5152 52.62C41.7239 53.4176 42.0449 54.1106 42.4783 54.6987C42.9119 55.2868 43.4698 55.742 44.152 56.0642C44.8342 56.3866 45.657 56.5396 46.6203 56.5235C48.0329 56.5235 49.221 56.1246 50.1841 55.3271C51.1474 54.5294 51.7173 53.4055 51.8939 51.9553H51.4124C51.2037 53.325 50.6698 54.3523 49.811 55.037C48.952 55.7219 47.8725 56.0642 46.572 56.0642C45.6891 56.0642 44.9426 55.9112 44.3325 55.6051C43.7226 55.299 43.2248 54.8799 42.8395 54.3482C42.4543 53.8164 42.1693 53.192 41.9847 52.4749C41.8 51.758 41.6997 50.9804 41.6837 50.1425ZM51.5568 49.6591H41.6838C41.7318 48.789 41.8924 48.0075 42.1653 47.3147C42.4383 46.6217 42.7954 46.0295 43.237 45.5381C43.6784 45.0466 44.1922 44.6721 44.7781 44.4141C45.364 44.1563 45.9942 44.0274 46.6684 44.0274C47.4711 44.0274 48.1773 44.1765 48.7875 44.4746C49.3975 44.7727 49.9072 45.1797 50.3167 45.6952C50.726 46.2108 51.035 46.8111 51.2437 47.4958C51.4524 48.1807 51.5568 48.9019 51.5568 49.6591ZM62.0319 47.508H62.5135C62.5135 46.1222 62.1122 45.1151 61.3096 44.4867C60.5067 43.8582 59.4151 43.544 58.0345 43.544C57.2639 43.544 56.6138 43.6408 56.0839 43.8341C55.5542 44.0274 55.1208 44.2772 54.7836 44.5833C54.4465 44.8894 54.2057 45.2278 54.0612 45.5985C53.9167 45.9691 53.8444 46.3237 53.8444 46.662C53.8444 47.3387 53.9648 47.8785 54.2057 48.2814C54.4465 48.6843 54.8237 48.9985 55.3374 49.2241C55.6906 49.3851 56.0919 49.5302 56.5415 49.6593C56.991 49.7881 57.5127 49.925 58.1068 50.07C58.6365 50.1991 59.1582 50.3279 59.672 50.4567C60.1857 50.5857 60.6392 50.7589 61.0325 50.9764C61.4259 51.194 61.7469 51.4719 61.9958 51.8104C62.2446 52.1487 62.369 52.5918 62.369 53.1396C62.369 53.6715 62.2447 54.1226 61.9958 54.4931C61.749 54.8618 61.4243 55.1714 61.0447 55.3997C60.6593 55.6332 60.2298 55.8024 59.7563 55.9071C59.2827 56.0119 58.8212 56.0642 58.3717 56.0642C56.9108 56.0642 55.7909 55.738 55.0124 55.0854C54.2338 54.4328 53.8445 53.4055 53.8445 52.0036H53.3628C53.3628 53.5667 53.7843 54.7107 54.627 55.4359C55.4699 56.161 56.7181 56.5235 58.3717 56.5235C58.9014 56.5235 59.4352 56.463 59.9731 56.3422C60.5108 56.2213 60.9925 56.024 61.4178 55.75C61.8396 55.4799 62.1938 55.116 62.4533 54.6867C62.7182 54.2514 62.8507 53.7198 62.8507 53.0913C62.8507 52.4951 62.7342 52.0117 62.5015 51.6411C62.2687 51.2706 61.9637 50.9643 61.5864 50.7226C61.2091 50.4809 60.7838 50.2916 60.3101 50.1547C59.8339 50.0169 59.3562 49.8839 58.8773 49.7557C58.2878 49.6005 57.6979 49.4475 57.1073 49.2966C56.6018 49.1676 56.1322 49.0146 55.6987 48.8373C55.2813 48.66 54.9482 48.4063 54.6993 48.076C54.4504 47.7457 54.3261 47.2743 54.3261 46.662C54.3261 46.5493 54.3582 46.3478 54.4224 46.0578C54.4865 45.7676 54.6392 45.4736 54.88 45.1755C55.1208 44.8775 55.4899 44.6116 55.9876 44.3779C56.4853 44.1443 57.1676 44.0274 58.0345 44.0274C58.6285 44.0274 59.1702 44.0919 59.6599 44.2208C60.1496 44.3497 60.571 44.5551 60.9241 44.8372C61.2773 45.1192 61.5502 45.4776 61.7429 45.9127C61.9355 46.3479 62.0319 46.8796 62.0319 47.508ZM73.1812 47.508H73.6628C73.6628 46.1222 73.2616 45.1151 72.4589 44.4867C71.6561 43.8582 70.5645 43.544 69.1838 43.544C68.4133 43.544 67.763 43.6408 67.2333 43.8341C66.7035 44.0274 66.27 44.2772 65.933 44.5833C65.5958 44.8894 65.355 45.2278 65.2105 45.5985C65.0659 45.9691 64.9938 46.3237 64.9938 46.662C64.9938 47.3387 65.1142 47.8785 65.3552 48.2814C65.5958 48.6843 65.9732 48.9985 66.4868 49.2241C66.8401 49.3851 67.2413 49.5302 67.6908 49.6593C68.1403 49.7881 68.662 49.925 69.2561 50.07C69.7859 50.1991 70.3077 50.3279 70.8213 50.4567C71.3351 50.5857 71.7885 50.7589 72.1819 50.9764C72.5752 51.194 72.8964 51.4719 73.1451 51.8104C73.394 52.1487 73.5184 52.5918 73.5184 53.1396C73.5184 53.6715 73.394 54.1226 73.1451 54.4931C72.8984 54.8618 72.5737 55.1714 72.1941 55.3997C71.8086 55.6332 71.3792 55.8024 70.9056 55.9071C70.4321 56.0119 69.9705 56.0642 69.521 56.0642C68.0601 56.0642 66.9404 55.738 66.1618 55.0854C65.383 54.4328 64.9938 53.4055 64.9938 52.0036H64.5122C64.5122 53.5667 64.9336 54.7107 65.7765 55.4359C66.6192 56.161 67.8674 56.5235 69.521 56.5235C70.0508 56.5235 70.5846 56.463 71.1224 56.3422C71.66 56.2213 72.1418 56.024 72.5673 55.75C72.989 55.4799 73.3433 55.116 73.6027 54.6867C73.8676 54.2514 74 53.7198 74 53.0913C74 52.4951 73.8837 52.0117 73.6508 51.6411C73.4181 51.2706 73.1132 50.9643 72.7358 50.7226C72.3586 50.4809 71.9331 50.2916 71.4596 50.1547C70.9833 50.0169 70.5056 49.8839 70.0267 49.7557C69.4373 49.6005 68.8473 49.4475 68.2568 49.2966C67.751 49.1676 67.2815 49.0146 66.848 48.8373C66.4306 48.66 66.0975 48.4063 65.8487 48.076C65.5998 47.7457 65.4754 47.2743 65.4754 46.662C65.4754 46.5493 65.5075 46.3478 65.5718 46.0578C65.636 45.7676 65.7886 45.4736 66.0293 45.1755C66.27 44.8775 66.6393 44.6116 67.1369 44.3779C67.6347 44.1443 68.3169 44.0274 69.1839 44.0274C69.778 44.0274 70.3197 44.0919 70.8093 44.2208C71.299 44.3497 71.7203 44.5551 72.0735 44.8372C72.4268 45.1192 72.6997 45.4776 72.8923 45.9127C73.085 46.3479 73.1814 46.8796 73.1814 47.508H73.1812Z" fill="#222222"/>
<path d="M44.8947 9.56187C43.5911 3.97407 40.5113 2.14185 40.1804 1.4397C39.817 0.941722 39.4256 0 39.4256 0C39.4217 0.0195878 39.4217 0.0316419 39.4178 0.0512297V0.0632837C39.4178 0.0791047 39.414 0.0866384 39.414 0.102459V0.11828H39.4101V0.168757H39.4062C39.4062 0.17629 39.4062 0.188344 39.4023 0.192111V0.215466C39.4023 0.223 39.4023 0.231287 39.3985 0.235054V0.254642C39.3985 0.266696 39.3985 0.277996 39.3946 0.286284V0.29005C39.3939 0.307348 39.3913 0.324524 39.3868 0.34128V0.348814C39.383 0.352581 39.383 0.356348 39.383 0.360868V0.376689H39.3791V0.400044H39.3752V0.415865H39.3675V0.439219H39.3636V0.458807H39.3597V0.474628H39.3558V0.490449H39.352V0.50627H39.3481V0.522091H39.3442V0.534145H39.3403V0.549966H39.3365V0.565787H39.3326C39.3287 0.565787 39.3287 0.569554 39.3287 0.569554V0.577087L39.3248 0.584621C39.3248 0.592155 39.321 0.600442 39.3171 0.607976C39.3132 0.611743 39.3132 0.611743 39.3132 0.61551V0.623043H39.3093V0.630577H39.3016V0.650165H39.2938V0.662219H39.29V0.665986H39.2861V0.67352H39.2822V0.685574H39.2783V0.693108H39.2706V0.705162H39.2667V0.712695H39.2628V0.720229H39.259V0.732283H39.2551V0.739817H39.2512V0.743584H39.2473V0.751118H39.2396V0.763172H39.2357V0.766939H39.2318V0.774472H39.228V0.786526H39.2241V0.790293H39.2202V0.797827H39.2163V0.801594H39.2125V0.813648H39.2047V0.817415H39.2008V0.824949H39.197V0.828716H39.1931V0.836249H39.1892V0.843783C39.1853 0.843783 39.1853 0.84755 39.1853 0.84755V0.851317H39.1815L39.1691 0.870905C39.1691 0.870905 39.1613 0.878438 39.1613 0.882959C39.1574 0.882959 39.1574 0.886726 39.1574 0.886726V0.890492H39.1536V0.894259H39.1497V0.901793H39.1419V0.90556H39.1381V0.909327H39.1342V0.920628H39.1303V0.924395H39.1264V0.928161H39.1226V0.935695H39.1187V0.928161H39.1109V0.931928H39.1071V0.939462H39.1032V0.946996H39.0993V0.950763H39.0954V0.95453H39.0916V0.958297H39.0877V0.96583H39.0799V0.969597H39.0761V0.977131H39.0722V0.980898H39.0683V0.984665H39.0644V0.996719H39.0606V1.00049H39.0567V1.00425H39.0528V1.00802H39.0489V1.01179H39.0412V1.01932H39.0373V1.02309H39.0334V1.02685H39.0296V1.03439H39.0257V1.03815H39.0179V1.04192H39.0141V1.04569H39.0102V1.05322H39.0063V1.06076H39.0024V1.06452H38.9986V1.06829H38.9908V1.07206H38.9869V1.07582H38.9831V1.08336H38.9792V1.08712H38.9753V1.09466H38.9714V1.09842H38.9676V1.10219H38.9637V1.10596H38.9598V1.10973H38.9521V1.11349C38.9482 1.11349 38.9482 1.11726 38.9482 1.11726L38.9443 1.12103L38.9404 1.12479V1.13233H38.9366V1.13609H38.9327V1.13986H38.9288V1.14363H38.9249L38.9172 1.15116V1.15493C38.9094 1.1587 38.9094 1.16246 38.9009 1.17075C38.9009 1.17075 38.8932 1.17828 38.8885 1.17828C38.8761 1.18582 38.8606 1.20164 38.8482 1.21369C38.8405 1.21746 38.8319 1.22575 38.8242 1.22951C38.8079 1.24533 38.7917 1.25663 38.7754 1.26869C38.7514 1.29204 38.7266 1.30786 38.6987 1.33122H38.6948L38.5049 1.49244H38.501C38.3274 1.64161 38.1213 1.83372 37.8872 2.06124L37.8671 2.08083C36.462 3.49341 34.2464 6.43987 34.0162 11.1997C33.9922 11.5922 33.996 11.9764 34.0201 12.3494V12.3569C34.1332 14.2328 34.7385 15.8337 35.4972 17.1363C35.7956 17.6547 36.1226 18.1255 36.4535 18.5489C37.592 20.009 38.7545 20.8761 39.0489 21.0878C39.5054 22.1116 39.4643 23.8776 39.4643 23.8776L40.13 24.093C40.13 24.093 39.9929 22.3859 40.1827 21.5579C40.2432 21.3025 40.3804 21.0833 40.5423 20.8949C40.6555 20.8203 40.9787 20.5928 41.3661 20.2478C41.3863 20.2282 41.3987 20.2124 41.415 20.1928C42.9851 18.7681 45.92 15.2604 44.9148 9.54756L44.8947 9.56187Z" fill="#664E4E"/>
<path d="M63.7032 24.093C63.3821 24.093 63.0561 24.007 62.7733 23.8444L59.8159 22.0994C59.375 21.8508 59.5907 21.7648 59.7344 21.7169C60.324 21.5114 60.4438 21.4683 61.0718 21.1098C61.1389 21.0715 61.2251 21.0859 61.2922 21.1289L63.5642 22.4723C63.6457 22.5201 63.7607 22.5201 63.8374 22.4723L72.6905 17.3759C72.772 17.3281 72.8247 17.2325 72.8247 17.1369V6.94416C72.8247 6.84377 72.772 6.75293 72.6857 6.70034L63.8374 1.60875C63.7559 1.56094 63.6457 1.56094 63.5642 1.60875L54.7208 6.70512C54.6345 6.75293 54.5818 6.84855 54.5818 6.94894V17.1369C54.5818 17.2325 54.6345 17.3281 54.7208 17.3712L57.1461 18.7672C58.4642 19.4221 59.2695 18.6524 59.2695 17.8732V7.81428C59.2695 7.67085 59.3845 7.56089 59.5283 7.56089H60.6499C60.789 7.56089 60.9088 7.67085 60.9088 7.81428V17.8779C60.9088 19.6277 59.9501 20.6317 58.2869 20.6317C57.774 20.6317 57.3714 20.6317 56.2498 20.0771L53.9299 18.7433C53.3547 18.4134 53 17.7967 53 17.1321V6.94416C53 6.28441 53.3547 5.6629 53.9299 5.33302L62.7733 0.236651C63.3341 -0.0788838 64.0771 -0.0788838 64.6331 0.236651L73.4861 5.3378C74.0613 5.66768 74.416 6.28441 74.416 6.94894V17.1369C74.416 17.7967 74.0613 18.4134 73.4861 18.748L64.6331 23.8444C64.3503 24.007 64.0292 24.093 63.7032 24.093ZM70.8499 14.0485C70.8499 12.1409 69.5557 11.6342 66.838 11.2756C64.0867 10.9123 63.8087 10.7258 63.8087 10.0852C63.8087 9.5545 64.0435 8.84694 66.0806 8.84694C67.8973 8.84694 68.5683 9.23897 68.8463 10.4629C68.8703 10.5776 68.9757 10.6637 69.0956 10.6637H70.2459C70.3178 10.6637 70.3849 10.635 70.4329 10.5824C70.4808 10.5298 70.5048 10.4581 70.5 10.3864C70.3226 8.27802 68.9182 7.29795 66.0806 7.29795C63.5546 7.29795 62.0496 8.35929 62.0496 10.1425C62.0496 12.074 63.5498 12.6095 65.9704 12.8485C68.8703 13.1306 69.0956 13.5561 69.0956 14.125C69.0956 15.1098 68.2999 15.5305 66.4353 15.5305C64.0915 15.5305 63.5786 14.9425 63.406 13.7808C63.3869 13.6565 63.2814 13.5656 63.152 13.5656H62.0064C61.8626 13.5656 61.7524 13.6804 61.7524 13.819C61.7524 15.3058 62.5624 17.0795 66.4401 17.0795C69.2394 17.0748 70.8499 15.9704 70.8499 14.0485Z" fill="#664E4E"/>
<path d="M13.5403 14.4616C14.8738 14.4616 15.9548 13.3805 15.9548 12.047C15.9548 10.7135 14.8738 9.63251 13.5403 9.63251C12.2068 9.63251 11.1257 10.7135 11.1257 12.047C11.1257 13.3805 12.2068 14.4616 13.5403 14.4616Z" fill="#664E4E"/>
<path d="M6.77962 16.8477L6.24531 16.7111C2.27656 15.7088 0 14.0044 0 12.0417C0 10.0776 2.27791 8.37455 6.24531 7.37222L6.77962 7.23695L6.92977 7.76585C7.33089 9.15058 7.84483 10.5001 8.46641 11.8009L8.58139 12.0417L8.46641 12.2824C7.84418 13.5851 7.32881 14.935 6.92977 16.3202L6.77962 16.8477ZM5.99913 8.60315C2.98401 9.45264 1.13219 10.7485 1.13219 12.0417C1.13219 13.3321 2.98266 14.6293 5.99913 15.4775C6.36841 14.3033 6.81479 13.1549 7.33151 12.0417C6.81105 10.9266 6.36592 9.77781 5.99913 8.60315ZM20.2996 16.8477L20.1508 16.3175C19.7487 14.9325 19.2343 13.5825 18.6128 12.2811L18.4979 12.0417L18.6128 11.7995C19.2351 10.4996 19.7477 9.14828 20.1508 7.76314L20.2996 7.2356L20.8339 7.37086C24.8041 8.3732 27.0793 10.0762 27.0793 12.0417C27.0793 14.0057 24.8027 15.7088 20.8339 16.7111L20.2996 16.8477ZM19.745 12.0417C20.2861 13.2131 20.7366 14.3656 21.0801 15.4775C24.0966 14.6293 25.9484 13.3321 25.9484 12.0417C25.9484 10.7485 24.098 9.45399 21.0801 8.60315C20.7112 9.77744 20.2652 10.9261 19.745 12.0417Z" fill="#664E4E"/>
<path d="M5.99104 8.59774L5.84225 8.07019C4.72494 4.13661 5.06311 1.31898 6.77154 0.336934C8.44209 -0.630231 11.1299 0.512782 13.9448 3.40075L14.3289 3.79573L13.9448 4.18936C12.945 5.22915 12.0312 6.34833 11.2124 7.53589L11.0595 7.75502L10.7944 7.77666C9.35459 7.88974 7.92639 8.12001 6.524 8.46518L5.99104 8.59774ZM8.13098 1.11878C7.82798 1.11878 7.56015 1.18506 7.33425 1.31492C6.21423 1.96015 6.01674 4.20694 6.78777 7.23965C7.99301 6.97317 9.20906 6.78244 10.4346 6.67558C11.1441 5.66926 11.9181 4.71001 12.7517 3.80385C10.9892 2.09 9.32539 1.11878 8.13098 1.11878ZM18.9483 24.0927C17.3414 24.0927 15.2772 22.8807 13.1345 20.6812L12.7517 20.2876L13.1345 19.8953C14.1345 18.8538 15.0487 17.7333 15.8683 16.5447L16.0198 16.3283L16.2822 16.3026C17.7225 16.1915 19.1513 15.9621 20.554 15.6168L21.0883 15.4815L21.2384 16.0104C22.3503 19.9413 22.0135 22.763 20.3078 23.745C19.8936 23.9798 19.4243 24.0998 18.9483 24.0927ZM14.3289 20.2781C16.0901 21.992 17.7553 22.9645 18.9483 22.9645C19.2527 22.9645 19.5205 22.8969 19.7451 22.7684C20.8664 22.1218 21.0653 19.871 20.2916 16.8383C19.0877 17.1061 17.8703 17.2982 16.642 17.405C15.9355 18.4129 15.1628 19.3727 14.3289 20.2781Z" fill="#664E4E"/>
<path d="M21.0883 8.59768L20.554 8.46377C19.1513 8.11753 17.7226 7.88725 16.2822 7.77525L16.0198 7.75226L15.8683 7.53312C15.0499 6.34491 14.1356 5.22567 13.1345 4.1866L12.7517 3.79297L13.1345 3.40069C15.9481 0.514079 18.6345 -0.628934 20.3078 0.336878C22.0149 1.32027 22.3544 4.1379 21.2384 8.07014L21.0883 8.59768ZM16.642 6.67553C17.9325 6.7905 19.1553 6.98394 20.2916 7.23959C21.0639 4.20689 20.8664 1.96009 19.7451 1.31351C18.6305 0.668284 16.5325 1.65574 14.329 3.80379C15.1622 4.71009 15.9359 5.66778 16.642 6.67553ZM8.13098 24.0926C7.65502 24.0994 7.18582 23.9794 6.77154 23.745C5.06311 22.7629 4.72494 19.9426 5.8409 16.0104L5.98699 15.4815L6.5213 15.6167C7.82528 15.9454 9.26182 16.1767 10.7931 16.3025L11.0555 16.3282L11.2083 16.5447C12.0253 17.7323 12.9398 18.8537 13.9407 19.8953L14.3249 20.2875L13.9407 20.6812C11.7994 22.882 9.73526 24.0926 8.13098 24.0926ZM6.78777 16.8395C6.01675 19.8723 6.21424 22.1231 7.33426 22.7697C8.45022 23.4054 10.5415 22.4248 12.7517 20.2781C11.9184 19.3716 11.1444 18.4124 10.4346 17.4063C9.20784 17.2978 7.98959 17.1085 6.78777 16.8395Z" fill="#664E4E"/>
<path d="M13.5402 17.5498C12.6109 17.5498 11.6573 17.5105 10.6996 17.4307L10.4345 17.4077L10.2816 17.1886C9.74156 16.412 9.23343 15.6137 8.7585 14.7957C8.28707 13.9755 7.8489 13.1366 7.44505 12.2811L7.33142 12.0417L7.44505 11.7995C7.8495 10.9446 8.28641 10.106 8.7585 9.28625C9.22788 8.48005 9.74054 7.67385 10.2816 6.89201L10.4345 6.67558L10.6996 6.65123C12.5891 6.49297 14.4886 6.49297 16.3781 6.65123L16.6406 6.67693L16.7934 6.89336C17.8753 8.44725 18.8254 10.0888 19.634 11.8009L19.7463 12.043L19.634 12.2824C18.8277 13.9957 17.8774 15.6374 16.7934 17.1899L16.6406 17.4091L16.3781 17.4321C15.4231 17.5092 14.4682 17.5498 13.5402 17.5498ZM11.0594 16.3269C12.73 16.4527 14.3505 16.4527 16.0197 16.3269C16.9515 14.9624 17.7799 13.5299 18.4978 12.0417C17.7824 10.552 16.9539 9.11941 16.0197 7.75637C14.3687 7.62921 12.7104 7.62921 11.0594 7.75637C10.1243 9.11891 9.29585 10.5516 8.5813 12.0417C9.30075 13.5291 10.129 14.9614 11.0594 16.3269Z" fill="#664E4E"/>
</svg>
