<svg width="27" height="60" viewBox="0 0 27 60" fill="none" xmlns="http://www.w3.org/2000/svg">
<path d="M26.5045 23.8875C23.3391 9.9375 15.8562 5.3525 15.0523 3.6C14.3511 2.615 13.725 1.215 13.2117 0C13.1215 1.2375 13.0739 1.7125 11.9019 2.96C10.0913 4.375 0.787769 12.165 0.0314665 28.01C-0.674749 42.79 10.7249 51.5975 12.2725 52.72L12.4478 52.845C12.7701 55.2244 13.0457 57.6098 13.2743 60H14.4788C14.7641 57.4203 15.1905 54.8582 15.756 52.325C16.8003 51.585 17.2686 51.1675 17.8847 50.5925C20.8021 47.8982 23.1207 44.6228 24.6905 40.9778C26.2603 37.3329 27.0463 33.3997 26.9979 29.4325C27.0229 27.3975 26.7399 25.2775 26.5045 23.8875V23.8875ZM13.1415 44.375C13.1415 44.375 13.1415 23.6475 13.8302 23.65C14.3636 23.65 15.0573 50.3875 15.0573 50.3875C14.1032 50.275 13.1415 45.9875 13.1415 44.375Z" fill="#593F7A"/>
</svg>
