<svg width="53" height="60" viewBox="0 0 53 60" fill="none" xmlns="http://www.w3.org/2000/svg">
<path d="M26.4881 60C25.6934 60 24.8868 59.7857 24.1869 59.3809L16.868 55.0352C15.7766 54.4161 16.3104 54.2018 16.6663 54.0827C18.1253 53.5708 18.4219 53.4636 19.9758 52.5707C20.1419 52.4754 20.3554 52.5112 20.5215 52.6183L26.1441 55.9639C26.3458 56.0829 26.6305 56.0829 26.8203 55.9639L48.7296 43.2722C48.9313 43.1531 49.0618 42.915 49.0618 42.6769V17.2934C49.0618 17.0434 48.9313 16.8171 48.7178 16.6862L26.8203 4.00635C26.6186 3.88729 26.3458 3.88729 26.1441 4.00635L4.2585 16.6981C4.04499 16.8171 3.9145 17.0553 3.9145 17.3053V42.6769C3.9145 42.915 4.04499 43.1531 4.2585 43.2602L10.2607 46.7368C13.5228 48.3679 15.5157 46.451 15.5157 44.5104V19.4603C15.5157 19.1031 15.8004 18.8292 16.1562 18.8292H18.932C19.276 18.8292 19.5725 19.1031 19.5725 19.4603V44.5223C19.5725 48.8798 17.2001 51.3801 13.0839 51.3801C11.8147 51.3801 10.8183 51.3801 8.04253 49.999L2.30125 46.6773C0.877798 45.8557 0 44.3199 0 42.6649V17.2934C0 15.6504 0.877798 14.1026 2.30125 13.2811L24.1869 0.589344C25.5748 -0.196448 27.4134 -0.196448 28.7894 0.589344L50.6987 13.293C52.1222 14.1145 53 15.6504 53 17.3053V42.6769C53 44.3199 52.1222 45.8557 50.6987 46.6892L28.7894 59.3809C28.0895 59.7857 27.2948 60 26.4881 60ZM44.1746 34.9856C44.1746 30.2351 40.9718 28.9731 34.246 28.0802C27.4371 27.1753 26.7491 26.711 26.7491 25.1156C26.7491 23.794 27.3303 22.0319 32.3718 22.0319C36.8675 22.0319 38.5282 23.0082 39.2162 26.0562C39.2755 26.3419 39.5365 26.5562 39.833 26.5562H42.6799C42.8579 26.5562 43.0239 26.4848 43.1426 26.3538C43.2612 26.2228 43.3205 26.0443 43.3086 25.8657C42.8697 20.6151 39.3941 18.1744 32.3718 18.1744C26.1204 18.1744 22.3957 20.8175 22.3957 25.2585C22.3957 30.0685 26.1085 31.4019 32.0989 31.9972C39.2755 32.6997 39.833 33.7593 39.833 35.1761C39.833 37.6287 37.8639 38.6765 33.2496 38.6765C27.449 38.6765 26.1797 37.212 25.7527 34.3189C25.7052 34.0093 25.4443 33.7831 25.124 33.7831H22.2889C21.9331 33.7831 21.6603 34.0689 21.6603 34.4141C21.6603 38.1169 23.665 42.534 33.2614 42.534C40.1889 42.5221 44.1746 39.7718 44.1746 34.9856V34.9856Z" fill="#665C46"/>
</svg>
