<svg width="66" height="26" viewBox="0 0 66 26" fill="none" xmlns="http://www.w3.org/2000/svg">
<path d="M42.6294 25.375L52.648 0.625H46.0068L39.1541 16.6184L34.2802 0.625H29.1742L23.9432 16.6184L20.2526 9.33133L16.9139 19.5742L20.3041 25.375H26.8397L31.568 11.0316L36.0797 25.375H42.6294Z" fill="#664E4E"/>
<path d="M6.28931 16.8788H10.3692C11.4839 16.8944 12.5954 16.7552 13.6718 16.465L14.7262 13.2179L17.6756 4.14414C17.4481 3.78595 17.1892 3.44862 16.9022 3.13609C15.3914 1.46203 13.1772 0.625 10.2596 0.625H-3.05176e-05V25.375H6.28931V16.8788ZM11.6905 6.31879C12.2826 6.91348 12.5782 7.70926 12.5774 8.70614C12.5765 9.70301 12.3187 10.4992 11.8039 11.0948C11.2333 11.7496 10.1831 12.0766 8.65345 12.0757H6.28931V5.42676H8.66376C10.0895 5.42676 11.0984 5.7241 11.6905 6.31879ZM48.5783 20.9419L50.4848 16.1402H55.9878L53.3762 8.85567L56.6427 0.625L66 25.375H59.0996L57.5012 20.9419H48.5783Z" fill="#664E4E"/>
</svg>
