<svg width="69" height="60" viewBox="0 0 69 60" fill="none" xmlns="http://www.w3.org/2000/svg">
<path d="M34.4076 23.9317C31.1004 23.9317 28.407 26.625 28.407 29.9323C28.407 33.2396 31.1004 35.9329 34.4076 35.9329C37.7149 35.9329 40.4082 33.2396 40.4082 29.9323C40.4082 26.625 37.7149 23.9317 34.4076 23.9317ZM17.6084 41.8578L16.2839 41.5299C6.42721 39.0321 0.767212 34.806 0.767212 29.9218C0.767212 25.0376 6.42931 20.8116 16.2839 18.3138L17.6084 17.9858L17.9806 19.2998C18.9805 22.7417 20.2588 26.0965 21.803 29.331L22.0868 29.9218L21.803 30.5231C20.2556 33.7562 18.9772 37.1113 17.9806 40.5543L17.6084 41.8578ZM15.672 21.3792C8.18072 23.4818 3.58249 26.7112 3.58249 29.9218C3.58249 33.1324 8.18282 36.3492 15.672 38.4644C16.5901 35.5474 17.6984 32.6938 18.9898 29.9218C17.6966 27.1506 16.5882 24.2969 15.672 21.3792ZM51.2068 41.8578L50.8347 40.5438C49.8365 37.1047 48.5581 33.7533 47.0123 30.5231L46.7284 29.9218L47.0123 29.3205C48.5596 26.0874 49.8381 22.7323 50.8347 19.2893L51.2068 17.9858L52.5314 18.3138C62.388 20.8116 68.048 25.0376 68.048 29.9218C68.048 34.806 62.3859 39.0321 52.5314 41.5299L51.2068 41.8578ZM49.8254 29.9218C51.1211 32.6919 52.2296 35.5459 53.1432 38.4644C60.645 36.3513 65.2327 33.1324 65.2327 29.9218C65.2327 26.7112 60.6324 23.4944 53.1432 21.3792C52.223 24.2954 51.1148 27.1489 49.8254 29.9218ZM15.6489 21.3687L15.2767 20.0547C12.5056 10.2863 13.3487 3.2786 17.5874 0.835464C21.7483 -1.56352 28.4175 1.27279 35.4147 8.45712L36.3672 9.43269L35.4147 10.4083C32.9299 12.9936 30.6594 15.7767 28.6257 18.7301L28.243 19.2662L27.5849 19.3209C24.0074 19.6033 20.4587 20.1749 16.9735 21.0302L15.6489 21.3687ZM20.9704 2.78661C20.2156 2.78661 19.547 2.94009 18.9877 3.26809C16.2061 4.87862 15.7141 10.4629 17.6295 17.9963C20.6181 17.3277 23.6473 16.8558 26.6977 16.5834C28.4538 14.0822 30.3741 11.7004 32.446 9.45372C28.0769 5.194 23.937 2.78451 20.9704 2.78451V2.78661ZM47.8554 59.8597C47.8449 59.8597 47.8449 59.8597 47.8554 59.8597C43.8585 59.8597 38.722 56.8594 33.4005 51.3844L32.4481 50.4088L33.4005 49.4332C35.8854 46.8479 38.1559 44.0648 40.1896 41.1114L40.5617 40.5753L41.2198 40.5101C44.8019 40.2372 48.3549 39.6655 51.8418 38.8008L53.1664 38.4728L53.5385 39.7869C56.3096 49.5552 55.4665 56.5524 51.2278 58.9934C50.203 59.5824 49.0371 59.8812 47.8554 59.8576V59.8597ZM36.3672 50.3878C40.7362 54.6475 44.8761 57.057 47.8428 57.057H47.8533C48.5976 57.057 49.2662 56.893 49.8254 56.5755C52.6071 54.965 53.1117 49.3807 51.1837 41.8473C48.1956 42.5166 45.1661 42.9851 42.1155 43.2497C40.3594 45.7543 38.4391 48.1396 36.3672 50.3899V50.3878ZM53.1664 21.3687L51.8418 21.0302C48.3524 20.1778 44.8004 19.6061 41.2198 19.3209L40.5617 19.2662L40.1896 18.7301C38.1559 15.7767 35.8854 12.9936 33.4005 10.4083L32.4481 9.43269L33.4005 8.45712C40.3977 1.27279 47.0669 -1.56352 51.2278 0.835464C55.4665 3.2765 56.3096 10.2863 53.5385 20.0547L53.1664 21.3687ZM42.1176 16.5834C45.168 16.855 48.1973 17.327 51.1858 17.9963C53.1138 10.4629 52.6092 4.87652 49.8275 3.26809C47.0564 1.67017 41.8443 4.12171 36.3693 9.45582C38.4355 11.7073 40.3555 14.0887 42.1176 16.5855V16.5834ZM20.9704 59.8597C19.7867 59.8807 18.6156 59.5863 17.5874 58.9955C13.3487 56.5545 12.5056 49.5552 15.2767 39.789L15.6489 38.4749L16.9735 38.8029C20.2156 39.625 23.7857 40.1926 27.5849 40.5122L28.243 40.5774L28.6152 41.1136C30.6489 44.0669 32.9194 46.85 35.4042 49.4353L36.3567 50.4109L35.4042 51.3865C30.0932 56.8615 24.9568 59.8618 20.9704 59.8618V59.8597ZM17.6316 41.8473C15.7036 49.3807 16.2082 54.9671 18.9898 56.5755C21.7609 58.1524 26.9626 55.7219 32.4481 50.3878C30.3761 48.1375 28.4558 45.7522 26.6998 43.2476C23.649 42.9838 20.6195 42.5152 17.6316 41.8452V41.8473ZM34.4076 43.6092C32.0969 43.6092 29.7316 43.5104 27.3558 43.3128L26.6977 43.2581L26.315 42.7115C24.973 40.7832 23.7125 38.7995 22.5368 36.7655C21.3586 34.7315 20.2664 32.6489 19.2631 30.5231L18.9793 29.9218L19.2631 29.3205C21.2732 25.07 23.6319 20.9933 26.315 17.1321L26.6977 16.5855L27.3558 16.5308C32.0487 16.1355 36.7666 16.1355 41.4595 16.5308L42.1176 16.5855L42.5002 17.1321C45.1868 20.9911 47.5457 25.0681 49.5521 29.3205L49.836 29.9218L49.5521 30.5231C47.5497 34.7777 45.1907 38.855 42.5002 42.7115L42.1176 43.2581L41.4595 43.3128C39.114 43.5091 36.7613 43.608 34.4076 43.6092ZM28.2535 40.5648C32.3934 40.8823 36.4218 40.8823 40.5722 40.5648C42.8869 37.1753 44.9441 33.617 46.7263 29.9197C44.9516 26.2163 42.8905 22.6572 40.5617 19.2746C36.4651 18.9571 32.3501 18.9571 28.2535 19.2746C25.9231 22.6561 23.8619 26.2154 22.0889 29.9197C23.8717 33.6188 25.9325 37.1774 28.2535 40.5648Z" fill="#665C46"/>
</svg>
