<svg width="61" height="37" viewBox="0 0 61 37" fill="none" xmlns="http://www.w3.org/2000/svg">
<path d="M15.6507 12.056C17.6543 4.01922 22.6656 0 30.6815 0C42.7062 0 44.2093 9.04198 50.2216 10.5489C54.2304 11.5541 57.737 10.0472 60.7432 6.02795C58.7396 14.0647 53.7282 18.084 45.7123 18.084C33.6877 18.084 32.1846 9.04198 26.1723 7.53502C22.1635 6.52984 18.6569 8.03679 15.6507 12.056ZM0.619873 30.14C2.62343 22.1032 7.6348 18.084 15.6507 18.084C27.6754 18.084 29.1784 27.1259 35.1908 28.6329C39.1995 29.6381 42.7062 28.1311 45.7123 24.1119C43.7088 32.1487 38.6974 36.1679 30.6815 36.1679C18.6569 36.1679 17.1538 27.1259 11.1414 25.619C7.13268 24.6138 3.62604 26.1207 0.619873 30.14Z" fill="#665C46"/>
</svg>
