<svg width="66" height="28" viewBox="0 0 66 28" fill="none" xmlns="http://www.w3.org/2000/svg">
<path d="M60.6346 3.89008e-06H42.0861C41.4179 -0.000822953 40.7562 0.130168 40.1388 0.385476C39.5213 0.640783 38.9603 1.01539 38.4878 1.48784C38.0154 1.96029 37.6408 2.52131 37.3855 3.13876C37.1302 3.7562 36.9992 4.41795 37 5.0861V22.9139C36.9992 23.5821 37.1302 24.2438 37.3855 24.8612C37.6408 25.4787 38.0154 26.0397 38.4878 26.5122C38.9603 26.9846 39.5213 27.3592 40.1388 27.6145C40.7562 27.8698 41.4179 28.0008 42.0861 28H60.6346C61.3027 28.0008 61.9645 27.8698 62.5819 27.6145C63.1994 27.3592 63.7604 26.9846 64.2328 26.5122C64.7053 26.0397 65.0799 25.4787 65.3352 24.8612C65.5905 24.2438 65.7215 23.5821 65.7207 22.9139V5.0861C65.7215 4.41795 65.5905 3.7562 65.3352 3.13876C65.0799 2.52131 64.7053 1.96029 64.2328 1.48784C63.7604 1.01539 63.1994 0.640783 62.5819 0.385476C61.9645 0.130168 61.3027 -0.000822953 60.6346 3.89008e-06ZM64.51 22.4472C64.5133 23.0178 64.4038 23.5835 64.1877 24.1117C63.9717 24.6399 63.6534 25.1201 63.2512 25.5249C62.8489 25.9296 62.3706 26.2509 61.8438 26.4702C61.317 26.6895 60.752 26.8025 60.1814 26.8027H42.5402C41.3889 26.8011 40.2852 26.343 39.4711 25.5289C38.657 24.7148 38.1989 23.6111 38.1973 22.4598V5.53933C38.1989 4.38801 38.657 3.28433 39.4711 2.47022C40.2852 1.65612 41.3889 1.19802 42.5402 1.19636H60.167C61.3187 1.1966 62.4233 1.65424 63.2377 2.46865C64.0521 3.28306 64.5097 4.38758 64.51 5.53933V22.4472ZM48.3551 13.1025L51.7072 19.5393C51.7683 19.6372 51.7315 19.7305 51.6363 19.7305H49.5514C49.4213 19.7305 49.3603 19.6982 49.3037 19.5761C48.5382 17.9965 47.7565 16.417 46.9568 14.7198H46.9344C46.1985 16.3541 45.4394 17.9778 44.6574 19.5905C44.6027 19.6838 44.5416 19.7206 44.4429 19.7206H42.4693C42.3482 19.7206 42.3392 19.6228 42.4002 19.5528L45.677 13.3071L42.5079 6.98789C42.4325 6.89006 42.5079 6.81916 42.577 6.81916H44.6341C44.7552 6.81916 44.8028 6.84339 44.8495 6.94929C45.6132 8.5414 46.3597 10.1417 47.0887 11.75H47.1112C47.8076 10.1704 48.575 8.52978 49.3127 6.96365C49.3737 6.86583 49.4105 6.8048 49.5281 6.8048H51.4532C51.5511 6.8048 51.5888 6.88019 51.5286 6.97353L48.3551 13.1025ZM52.2951 15.0519C52.2951 12.266 54.1466 10.0869 57.0913 10.0869C57.3435 10.0869 57.4745 10.0869 57.7132 10.1112V6.94211C57.7132 6.86672 57.7734 6.82005 57.8344 6.82005H59.7227C59.8206 6.82005 59.8448 6.85685 59.8448 6.91339V17.9032C59.8448 18.2254 59.8448 18.632 59.9058 19.0708C59.9058 19.1462 59.8816 19.1687 59.808 19.2073C58.8511 19.6619 57.8052 19.8983 56.7458 19.8992C54.1466 19.9127 52.2951 18.3098 52.2951 15.0519ZM57.7141 11.9896C57.4931 11.9051 57.2579 11.864 57.0213 11.8685C55.5126 11.8685 54.4607 13.0316 54.4607 14.9585C54.4607 17.1601 55.535 18.0432 56.8911 18.0432C57.1757 18.0432 57.4898 18.0109 57.7141 17.9131V11.9896Z" fill="#664E4E"/>
<path d="M13.9205 9.33193C15.1338 9.29552 16.2852 8.78797 17.1305 7.9169C17.9758 7.04584 18.4486 5.87977 18.4486 4.66597C18.4486 3.45217 17.9758 2.2861 17.1305 1.41503C16.2852 0.543965 15.1338 0.0364117 13.9205 0H4.58721C3.37396 0.0364117 2.2226 0.543965 1.37728 1.41503C0.531966 2.2861 0.0591792 3.45217 0.0591792 4.66597C0.0591792 5.87977 0.531966 7.04584 1.37728 7.9169C2.2226 8.78797 3.37396 9.29552 4.58721 9.33193C3.36335 9.35313 2.19678 9.85419 1.33878 10.7272C0.48078 11.6002 0 12.7753 0 13.9993C0 15.2233 0.48078 16.3984 1.33878 17.2714C2.19678 18.1444 3.36335 18.6455 4.58721 18.6667C3.36933 18.6965 2.21137 19.2013 1.36055 20.0732C0.509736 20.9451 0.0334868 22.1151 0.0334868 23.3333C0.0334868 24.5516 0.509736 25.7216 1.36055 26.5935C2.21137 27.4654 3.36933 27.9702 4.58721 28C5.82491 27.9993 7.01167 27.5072 7.88672 26.6318C8.76177 25.7565 9.25351 24.5696 9.25388 23.3319V9.33193H13.9205Z" fill="#664E4E"/>
<path d="M13.9206 18.6654C16.4979 18.6654 18.5873 16.576 18.5873 13.9987C18.5873 11.4214 16.4979 9.33203 13.9206 9.33203C11.3433 9.33203 9.25392 11.4214 9.25392 13.9987C9.25392 16.576 11.3433 18.6654 13.9206 18.6654Z" fill="#664E4E"/>
</svg>
