<svg width="369" height="350" viewBox="0 0 369 350" fill="none" xmlns="http://www.w3.org/2000/svg">
<g filter="url(#filter0_d_313:48)">
<g clip-path="url(#clip0_313:48)">
<rect x="30" y="22" width="309.241" height="290.74" rx="26" fill="#F5EAE6"/>
<path d="M92.7376 225.548L97.1583 230.856H94.63L90.7712 226.081V230.856H88.6865V220.418H90.7712V225.105L94.6448 220.418H97.1583L92.7376 225.548Z" fill="#313131"/>
<path d="M106.02 226.45C106.02 226.657 105.995 226.894 105.946 227.16H99.9432C99.9728 227.889 100.17 228.426 100.535 228.771C100.899 229.116 101.353 229.289 101.895 229.289C102.378 229.289 102.777 229.171 103.092 228.934C103.418 228.697 103.625 228.377 103.713 227.973H105.916C105.808 228.545 105.576 229.057 105.221 229.511C104.867 229.964 104.408 230.319 103.846 230.575C103.294 230.831 102.678 230.96 101.998 230.96C101.2 230.96 100.49 230.792 99.8693 230.457C99.2484 230.112 98.7654 229.624 98.4204 228.993C98.0754 228.362 97.9029 227.618 97.9029 226.761C97.9029 225.903 98.0754 225.159 98.4204 224.528C98.7654 223.887 99.2484 223.4 99.8693 223.064C100.49 222.729 101.2 222.562 101.998 222.562C102.807 222.562 103.511 222.729 104.113 223.064C104.724 223.4 105.192 223.863 105.517 224.454C105.852 225.036 106.02 225.701 106.02 226.45ZM103.92 226.243C103.95 225.573 103.773 225.065 103.388 224.72C103.014 224.375 102.55 224.203 101.998 224.203C101.437 224.203 100.963 224.375 100.579 224.72C100.195 225.065 99.9827 225.573 99.9432 226.243H103.92Z" fill="#313131"/>
<path d="M109.584 224.232C109.89 223.71 110.294 223.301 110.797 223.005C111.299 222.7 111.861 222.547 112.482 222.547V224.779H111.876C110.348 224.779 109.584 225.489 109.584 226.909V230.856H107.5V222.665H109.584V224.232Z" fill="#313131"/>
<path d="M116.844 222.562C117.534 222.562 118.126 222.724 118.619 223.05C119.111 223.375 119.461 223.814 119.668 224.366V222.665H121.738V230.856H119.668V229.141C119.461 229.693 119.111 230.137 118.619 230.472C118.126 230.797 117.534 230.96 116.844 230.96C116.154 230.96 115.533 230.792 114.981 230.457C114.429 230.122 113.996 229.639 113.68 229.008C113.375 228.367 113.222 227.618 113.222 226.761C113.222 225.903 113.375 225.159 113.68 224.528C113.996 223.887 114.429 223.4 114.981 223.064C115.533 222.729 116.154 222.562 116.844 222.562ZM117.495 224.38C116.844 224.38 116.322 224.592 115.928 225.016C115.533 225.44 115.336 226.021 115.336 226.761C115.336 227.5 115.533 228.081 115.928 228.505C116.322 228.919 116.844 229.126 117.495 229.126C118.126 229.126 118.643 228.914 119.047 228.491C119.461 228.057 119.668 227.48 119.668 226.761C119.668 226.031 119.461 225.455 119.047 225.031C118.643 224.597 118.126 224.38 117.495 224.38Z" fill="#313131"/>
<path d="M128.506 222.547C129.453 222.547 130.207 222.857 130.768 223.478C131.33 224.099 131.611 224.972 131.611 226.095V230.856H129.541V226.332C129.541 225.681 129.374 225.179 129.039 224.824C128.703 224.459 128.245 224.277 127.664 224.277C127.072 224.277 126.599 224.469 126.244 224.853C125.889 225.238 125.712 225.79 125.712 226.509V230.856H123.627V222.665H125.712V224.306C125.929 223.754 126.284 223.326 126.777 223.02C127.279 222.705 127.856 222.547 128.506 222.547Z" fill="#313131"/>
<path d="M134.54 221.438C134.155 221.438 133.845 221.335 133.608 221.128C133.372 220.911 133.253 220.64 133.253 220.314C133.253 219.979 133.372 219.708 133.608 219.501C133.845 219.284 134.155 219.176 134.54 219.176C134.924 219.176 135.234 219.284 135.471 219.501C135.708 219.718 135.826 219.989 135.826 220.314C135.826 220.64 135.708 220.911 135.471 221.128C135.234 221.335 134.924 221.438 134.54 221.438ZM132.056 232.956H132.647C132.953 232.956 133.169 232.891 133.298 232.763C133.436 232.635 133.505 232.413 133.505 232.098V222.665H135.589V232.098C135.589 233.872 134.697 234.759 132.913 234.759H132.056V232.956Z" fill="#313131"/>
<path d="M140.682 222.562C141.372 222.562 141.963 222.724 142.456 223.05C142.949 223.375 143.299 223.814 143.506 224.366V222.665H145.576V230.856H143.506V229.141C143.299 229.693 142.949 230.137 142.456 230.472C141.963 230.797 141.372 230.96 140.682 230.96C139.992 230.96 139.371 230.792 138.819 230.457C138.267 230.122 137.834 229.639 137.518 229.008C137.213 228.367 137.06 227.618 137.06 226.761C137.06 225.903 137.213 225.159 137.518 224.528C137.834 223.887 138.267 223.4 138.819 223.064C139.371 222.729 139.992 222.562 140.682 222.562ZM141.333 224.38C140.682 224.38 140.16 224.592 139.765 225.016C139.371 225.44 139.174 226.021 139.174 226.761C139.174 227.5 139.371 228.081 139.765 228.505C140.16 228.919 140.682 229.126 141.333 229.126C141.963 229.126 142.481 228.914 142.885 228.491C143.299 228.057 143.506 227.48 143.506 226.761C143.506 226.031 143.299 225.455 142.885 225.031C142.481 224.597 141.963 224.38 141.333 224.38Z" fill="#313131"/>
<path d="M152.344 222.547C153.29 222.547 154.044 222.857 154.606 223.478C155.168 224.099 155.449 224.972 155.449 226.095V230.856H153.379V226.332C153.379 225.681 153.211 225.179 152.876 224.824C152.541 224.459 152.083 224.277 151.501 224.277C150.91 224.277 150.437 224.469 150.082 224.853C149.727 225.238 149.55 225.79 149.55 226.509V230.856H147.465V222.665H149.55V224.306C149.767 223.754 150.121 223.326 150.614 223.02C151.117 222.705 151.694 222.547 152.344 222.547Z" fill="#313131"/>
<path d="M160.491 222.562C161.181 222.562 161.773 222.724 162.266 223.05C162.759 223.375 163.108 223.814 163.315 224.366V222.665H165.385V230.886C165.385 231.645 165.233 232.325 164.927 232.926C164.631 233.537 164.183 234.015 163.582 234.36C162.99 234.705 162.271 234.878 161.423 234.878C160.24 234.878 159.284 234.597 158.555 234.035C157.825 233.473 157.382 232.709 157.224 231.743H159.279C159.397 232.157 159.624 232.477 159.959 232.704C160.304 232.941 160.743 233.059 161.275 233.059C161.886 233.059 162.379 232.877 162.754 232.512C163.128 232.157 163.315 231.615 163.315 230.886V229.141C163.108 229.693 162.759 230.137 162.266 230.472C161.773 230.797 161.181 230.96 160.491 230.96C159.802 230.96 159.181 230.792 158.629 230.457C158.077 230.122 157.643 229.639 157.328 229.008C157.022 228.367 156.869 227.618 156.869 226.761C156.869 225.903 157.022 225.159 157.328 224.528C157.643 223.887 158.077 223.4 158.629 223.064C159.181 222.729 159.802 222.562 160.491 222.562ZM161.142 224.38C160.491 224.38 159.969 224.592 159.575 225.016C159.181 225.44 158.983 226.021 158.983 226.761C158.983 227.5 159.181 228.081 159.575 228.505C159.969 228.919 160.491 229.126 161.142 229.126C161.773 229.126 162.29 228.914 162.694 228.491C163.108 228.057 163.315 227.48 163.315 226.761C163.315 226.031 163.108 225.455 162.694 225.031C162.29 224.597 161.773 224.38 161.142 224.38Z" fill="#313131"/>
<path d="M180.918 222.547C181.913 222.547 182.697 222.857 183.268 223.478C183.85 224.09 184.141 224.962 184.141 226.095V230.856H182.071V226.332C182.071 225.701 181.908 225.218 181.583 224.883C181.268 224.538 180.829 224.366 180.267 224.366C179.686 224.366 179.222 224.548 178.877 224.913C178.532 225.277 178.36 225.81 178.36 226.509V230.856H176.29V226.332C176.29 225.701 176.127 225.218 175.802 224.883C175.487 224.538 175.048 224.366 174.486 224.366C173.905 224.366 173.441 224.548 173.096 224.913C172.751 225.277 172.579 225.81 172.579 226.509V230.856H170.494V222.665H172.579V224.218C172.796 223.685 173.136 223.276 173.599 222.991C174.072 222.695 174.619 222.547 175.24 222.547C175.901 222.547 176.472 222.705 176.955 223.02C177.448 223.336 177.818 223.789 178.064 224.38C178.32 223.818 178.7 223.375 179.203 223.05C179.715 222.715 180.287 222.547 180.918 222.547Z" fill="#313131"/>
<path d="M189.181 222.562C189.87 222.562 190.462 222.724 190.955 223.05C191.448 223.375 191.797 223.814 192.004 224.366V222.665H194.074V230.856H192.004V229.141C191.797 229.693 191.448 230.137 190.955 230.472C190.462 230.797 189.87 230.96 189.181 230.96C188.491 230.96 187.87 230.792 187.318 230.457C186.766 230.122 186.332 229.639 186.017 229.008C185.711 228.367 185.558 227.618 185.558 226.761C185.558 225.903 185.711 225.159 186.017 224.528C186.332 223.887 186.766 223.4 187.318 223.064C187.87 222.729 188.491 222.562 189.181 222.562ZM189.831 224.38C189.181 224.38 188.658 224.592 188.264 225.016C187.87 225.44 187.672 226.021 187.672 226.761C187.672 227.5 187.87 228.081 188.264 228.505C188.658 228.919 189.181 229.126 189.831 229.126C190.462 229.126 190.979 228.914 191.383 228.491C191.797 228.057 192.004 227.48 192.004 226.761C192.004 226.031 191.797 225.455 191.383 225.031C190.979 224.597 190.462 224.38 189.831 224.38Z" fill="#313131"/>
<path d="M198.787 222.562C199.783 222.562 200.581 222.813 201.183 223.316C201.784 223.818 202.158 224.489 202.306 225.327H200.355C200.276 224.932 200.098 224.617 199.822 224.38C199.546 224.144 199.187 224.025 198.743 224.025C198.388 224.025 198.112 224.109 197.915 224.277C197.718 224.444 197.619 224.671 197.619 224.957C197.619 225.184 197.698 225.366 197.856 225.504C198.014 225.642 198.211 225.75 198.447 225.829C198.684 225.908 199.024 226.002 199.468 226.11C200.089 226.248 200.591 226.396 200.976 226.554C201.37 226.702 201.705 226.943 201.981 227.278C202.267 227.603 202.41 228.047 202.41 228.609C202.41 229.309 202.134 229.875 201.582 230.309C201.04 230.743 200.305 230.96 199.379 230.96C198.314 230.96 197.462 230.723 196.821 230.25C196.18 229.767 195.791 229.082 195.653 228.195H197.649C197.698 228.599 197.876 228.919 198.181 229.156C198.487 229.383 198.886 229.496 199.379 229.496C199.734 229.496 200.005 229.412 200.192 229.245C200.379 229.067 200.473 228.84 200.473 228.564C200.473 228.328 200.389 228.136 200.222 227.988C200.064 227.84 199.862 227.727 199.615 227.648C199.379 227.569 199.039 227.475 198.595 227.367C197.984 227.229 197.486 227.091 197.102 226.953C196.727 226.805 196.402 226.573 196.126 226.258C195.86 225.943 195.727 225.509 195.727 224.957C195.727 224.247 195.998 223.671 196.54 223.227C197.082 222.784 197.831 222.562 198.787 222.562Z" fill="#313131"/>
<path d="M203.726 220.314C203.726 219.979 203.844 219.708 204.081 219.501C204.317 219.284 204.628 219.176 205.012 219.176C205.397 219.176 205.707 219.284 205.944 219.501C206.18 219.708 206.298 219.979 206.298 220.314C206.298 220.64 206.18 220.911 205.944 221.128C205.707 221.335 205.397 221.438 205.012 221.438C204.628 221.438 204.317 221.335 204.081 221.128C203.844 220.911 203.726 220.64 203.726 220.314ZM206.047 222.665V230.856H203.962V222.665H206.047Z" fill="#313131"/>
<path d="M212.812 222.547C213.758 222.547 214.512 222.857 215.074 223.478C215.636 224.099 215.917 224.972 215.917 226.095V230.856H213.847V226.332C213.847 225.681 213.679 225.179 213.344 224.824C213.009 224.459 212.551 224.277 211.969 224.277C211.378 224.277 210.905 224.469 210.55 224.853C210.195 225.238 210.018 225.79 210.018 226.509V230.856H207.933V219.915H210.018V224.306C210.234 223.754 210.589 223.326 211.082 223.02C211.585 222.705 212.161 222.547 212.812 222.547Z" fill="#313131"/>
<path d="M225.761 230.856L223.055 227.278V230.856H220.971V219.915H223.055V226.066L225.746 222.665H228.215L224.771 226.746L228.304 230.856H225.761Z" fill="#313131"/>
<path d="M233.101 222.562C233.899 222.562 234.614 222.729 235.245 223.064C235.886 223.4 236.388 223.887 236.753 224.528C237.118 225.159 237.3 225.903 237.3 226.761C237.3 227.618 237.118 228.362 236.753 228.993C236.388 229.624 235.886 230.112 235.245 230.457C234.614 230.792 233.899 230.96 233.101 230.96C232.303 230.96 231.583 230.792 230.942 230.457C230.312 230.112 229.814 229.624 229.449 228.993C229.085 228.362 228.902 227.618 228.902 226.761C228.902 225.903 229.085 225.159 229.449 224.528C229.814 223.887 230.312 223.4 230.942 223.064C231.583 222.729 232.303 222.562 233.101 222.562ZM233.101 224.366C232.52 224.366 232.027 224.573 231.623 224.986C231.218 225.391 231.016 225.982 231.016 226.761C231.016 227.539 231.218 228.136 231.623 228.55C232.027 228.954 232.52 229.156 233.101 229.156C233.683 229.156 234.175 228.954 234.58 228.55C234.984 228.136 235.186 227.539 235.186 226.761C235.186 225.982 234.984 225.391 234.58 224.986C234.175 224.573 233.683 224.366 233.101 224.366Z" fill="#313131"/>
<path d="M241.597 222.562C242.593 222.562 243.391 222.813 243.992 223.316C244.594 223.818 244.968 224.489 245.116 225.327H243.164C243.086 224.932 242.908 224.617 242.632 224.38C242.356 224.144 241.996 224.025 241.553 224.025C241.198 224.025 240.922 224.109 240.725 224.277C240.528 224.444 240.429 224.671 240.429 224.957C240.429 225.184 240.508 225.366 240.666 225.504C240.823 225.642 241.021 225.75 241.257 225.829C241.494 225.908 241.834 226.002 242.277 226.11C242.898 226.248 243.401 226.396 243.785 226.554C244.18 226.702 244.515 226.943 244.791 227.278C245.077 227.603 245.219 228.047 245.219 228.609C245.219 229.309 244.944 229.875 244.392 230.309C243.849 230.743 243.115 230.96 242.189 230.96C241.124 230.96 240.271 230.723 239.631 230.25C238.99 229.767 238.601 229.082 238.463 228.195H240.459C240.508 228.599 240.685 228.919 240.991 229.156C241.297 229.383 241.696 229.496 242.189 229.496C242.543 229.496 242.814 229.412 243.002 229.245C243.189 229.067 243.283 228.84 243.283 228.564C243.283 228.328 243.199 228.136 243.031 227.988C242.874 227.84 242.672 227.727 242.425 227.648C242.189 227.569 241.849 227.475 241.405 227.367C240.794 227.229 240.296 227.091 239.912 226.953C239.537 226.805 239.212 226.573 238.936 226.258C238.67 225.943 238.537 225.509 238.537 224.957C238.537 224.247 238.808 223.671 239.35 223.227C239.892 222.784 240.641 222.562 241.597 222.562Z" fill="#313131"/>
<path d="M250.557 222.562C251.355 222.562 252.07 222.729 252.701 223.064C253.342 223.4 253.844 223.887 254.209 224.528C254.574 225.159 254.756 225.903 254.756 226.761C254.756 227.618 254.574 228.362 254.209 228.993C253.844 229.624 253.342 230.112 252.701 230.457C252.07 230.792 251.355 230.96 250.557 230.96C249.759 230.96 249.039 230.792 248.398 230.457C247.768 230.112 247.27 229.624 246.905 228.993C246.54 228.362 246.358 227.618 246.358 226.761C246.358 225.903 246.54 225.159 246.905 224.528C247.27 223.887 247.768 223.4 248.398 223.064C249.039 222.729 249.759 222.562 250.557 222.562ZM250.557 224.366C249.976 224.366 249.483 224.573 249.079 224.986C248.674 225.391 248.472 225.982 248.472 226.761C248.472 227.539 248.674 228.136 249.079 228.55C249.483 228.954 249.976 229.156 250.557 229.156C251.139 229.156 251.631 228.954 252.036 228.55C252.44 228.136 252.642 227.539 252.642 226.761C252.642 225.982 252.44 225.391 252.036 224.986C251.631 224.573 251.139 224.366 250.557 224.366Z" fill="#313131"/>
<path d="M261.108 222.547C262.054 222.547 262.809 222.857 263.37 223.478C263.932 224.099 264.213 224.972 264.213 226.095V230.856H262.143V226.332C262.143 225.681 261.976 225.179 261.641 224.824C261.305 224.459 260.847 224.277 260.266 224.277C259.674 224.277 259.201 224.469 258.846 224.853C258.491 225.238 258.314 225.79 258.314 226.509V230.856H256.229V222.665H258.314V224.306C258.531 223.754 258.886 223.326 259.378 223.02C259.881 222.705 260.458 222.547 261.108 222.547Z" fill="#313131"/>
<path d="M269.256 222.562C269.946 222.562 270.537 222.724 271.03 223.05C271.523 223.375 271.873 223.814 272.08 224.366V222.665H274.149V230.886C274.149 231.645 273.997 232.325 273.691 232.926C273.395 233.537 272.947 234.015 272.346 234.36C271.754 234.705 271.035 234.878 270.187 234.878C269.004 234.878 268.048 234.597 267.319 234.035C266.589 233.473 266.146 232.709 265.988 231.743H268.043C268.162 232.157 268.388 232.477 268.723 232.704C269.068 232.941 269.507 233.059 270.039 233.059C270.65 233.059 271.143 232.877 271.518 232.512C271.892 232.157 272.08 231.615 272.08 230.886V229.141C271.873 229.693 271.523 230.137 271.03 230.472C270.537 230.797 269.946 230.96 269.256 230.96C268.566 230.96 267.945 230.792 267.393 230.457C266.841 230.122 266.407 229.639 266.092 229.008C265.786 228.367 265.633 227.618 265.633 226.761C265.633 225.903 265.786 225.159 266.092 224.528C266.407 223.887 266.841 223.4 267.393 223.064C267.945 222.729 268.566 222.562 269.256 222.562ZM269.906 224.38C269.256 224.38 268.733 224.592 268.339 225.016C267.945 225.44 267.748 226.021 267.748 226.761C267.748 227.5 267.945 228.081 268.339 228.505C268.733 228.919 269.256 229.126 269.906 229.126C270.537 229.126 271.054 228.914 271.459 228.491C271.873 228.057 272.08 227.48 272.08 226.761C272.08 226.031 271.873 225.455 271.459 225.031C271.054 224.597 270.537 224.38 269.906 224.38Z" fill="#313131"/>
<path d="M278.922 219.989L278.656 227.382H276.896L276.63 219.989H278.922ZM278.907 228.683V230.856H276.66V228.683H278.907Z" fill="#313131"/>
<path d="M141.395 255.764V258.535H144.477V259.34H141.395V262.169H144.822V263.02H140.349V254.913H144.822V255.764H141.395Z" fill="#313131"/>
<path d="M149.8 263.02L148.155 260.605L146.672 263.02H145.51L147.58 259.765L145.499 256.707H146.695L148.293 259.052L149.754 256.707H150.915L148.857 259.88L150.996 263.02H149.8Z" fill="#313131"/>
<path d="M155.456 256.626C156.016 256.626 156.514 256.756 156.951 257.017C157.388 257.278 157.729 257.653 157.974 258.144C158.227 258.635 158.354 259.21 158.354 259.869C158.354 260.528 158.227 261.103 157.974 261.594C157.729 262.077 157.388 262.449 156.951 262.709C156.514 262.97 156.016 263.1 155.456 263.1C154.843 263.1 154.321 262.947 153.892 262.64C153.47 262.326 153.179 261.916 153.018 261.41V266.01H151.972V256.707H153.018V258.317C153.179 257.811 153.47 257.404 153.892 257.098C154.321 256.783 154.843 256.626 155.456 256.626ZM155.157 257.558C154.751 257.558 154.383 257.653 154.053 257.845C153.723 258.029 153.467 258.297 153.283 258.65C153.099 259.003 153.007 259.409 153.007 259.869C153.007 260.329 153.099 260.735 153.283 261.088C153.467 261.433 153.723 261.701 154.053 261.893C154.383 262.084 154.751 262.18 155.157 262.18C155.809 262.18 156.326 261.977 156.709 261.571C157.1 261.157 157.296 260.59 157.296 259.869C157.296 259.148 157.1 258.585 156.709 258.179C156.326 257.765 155.809 257.558 155.157 257.558Z" fill="#313131"/>
<path d="M160.767 254.51V263.02H159.72V254.51H160.767Z" fill="#313131"/>
<path d="M165.312 256.626C165.918 256.626 166.458 256.756 166.934 257.017C167.417 257.278 167.792 257.653 168.061 258.144C168.337 258.635 168.475 259.21 168.475 259.869C168.475 260.528 168.337 261.103 168.061 261.594C167.792 262.077 167.417 262.449 166.934 262.709C166.458 262.97 165.918 263.1 165.312 263.1C164.707 263.1 164.162 262.97 163.679 262.709C163.204 262.449 162.829 262.077 162.553 261.594C162.277 261.103 162.139 260.528 162.139 259.869C162.139 259.21 162.277 258.635 162.553 258.144C162.829 257.653 163.204 257.278 163.679 257.017C164.162 256.756 164.707 256.626 165.312 256.626ZM165.312 257.546C164.937 257.546 164.588 257.63 164.266 257.799C163.952 257.968 163.695 258.228 163.495 258.581C163.304 258.926 163.208 259.355 163.208 259.869C163.208 260.375 163.304 260.804 163.495 261.157C163.695 261.502 163.952 261.759 164.266 261.927C164.588 262.096 164.937 262.18 165.312 262.18C165.688 262.18 166.033 262.096 166.347 261.927C166.669 261.759 166.926 261.502 167.118 261.157C167.317 260.804 167.417 260.375 167.417 259.869C167.417 259.355 167.317 258.926 167.118 258.581C166.926 258.228 166.669 257.968 166.347 257.799C166.033 257.63 165.688 257.546 165.312 257.546Z" fill="#313131"/>
<path d="M170.885 257.983C171.092 257.546 171.395 257.209 171.793 256.971C172.192 256.726 172.667 256.603 173.219 256.603V257.742H172.897C172.307 257.742 171.824 257.895 171.448 258.202C171.073 258.501 170.885 258.999 170.885 259.696V263.02H169.838V256.707H170.885V257.983Z" fill="#313131"/>
<path d="M180.059 259.512C180.059 259.735 180.043 259.926 180.013 260.087H174.965C174.988 260.808 175.191 261.349 175.574 261.709C175.965 262.069 176.44 262.249 177 262.249C177.506 262.249 177.928 262.123 178.265 261.87C178.61 261.609 178.821 261.264 178.897 260.835H180.013C179.936 261.272 179.764 261.663 179.495 262.008C179.235 262.353 178.894 262.621 178.472 262.813C178.05 263.004 177.575 263.1 177.046 263.1C176.44 263.1 175.904 262.97 175.436 262.709C174.968 262.449 174.6 262.077 174.332 261.594C174.071 261.103 173.941 260.528 173.941 259.869C173.941 259.21 174.071 258.635 174.332 258.144C174.6 257.653 174.968 257.278 175.436 257.017C175.904 256.756 176.44 256.626 177.046 256.626C177.659 256.626 178.192 256.756 178.644 257.017C179.104 257.278 179.453 257.627 179.691 258.064C179.936 258.501 180.059 258.984 180.059 259.512ZM179.001 259.581C179.024 259.114 178.947 258.723 178.771 258.409C178.595 258.094 178.353 257.86 178.046 257.707C177.74 257.554 177.406 257.477 177.046 257.477C176.471 257.477 175.988 257.657 175.597 258.018C175.206 258.37 174.995 258.892 174.965 259.581H179.001Z" fill="#313131"/>
<path d="M186.856 256.626C187.469 256.626 187.987 256.779 188.408 257.086C188.838 257.393 189.137 257.803 189.305 258.317V256.707H190.352V263.123C190.352 263.706 190.229 264.223 189.984 264.676C189.738 265.128 189.393 265.481 188.949 265.734C188.504 265.987 187.987 266.113 187.396 266.113C186.545 266.113 185.852 265.906 185.315 265.492C184.778 265.086 184.437 264.534 184.292 263.836H185.327C185.449 264.258 185.679 264.588 186.017 264.825C186.361 265.07 186.802 265.193 187.339 265.193C187.906 265.193 188.374 265.009 188.742 264.641C189.118 264.281 189.305 263.775 189.305 263.123V261.41C189.137 261.924 188.838 262.334 188.408 262.64C187.987 262.947 187.469 263.1 186.856 263.1C186.296 263.1 185.798 262.97 185.361 262.709C184.924 262.449 184.579 262.077 184.326 261.594C184.081 261.103 183.958 260.528 183.958 259.869C183.958 259.21 184.081 258.635 184.326 258.144C184.579 257.653 184.924 257.278 185.361 257.017C185.798 256.756 186.296 256.626 186.856 256.626ZM187.155 257.558C186.511 257.558 185.994 257.765 185.603 258.179C185.219 258.585 185.028 259.148 185.028 259.869C185.028 260.59 185.219 261.157 185.603 261.571C185.994 261.977 186.511 262.18 187.155 262.18C187.569 262.18 187.937 262.084 188.259 261.893C188.589 261.701 188.845 261.433 189.029 261.088C189.213 260.735 189.305 260.329 189.305 259.869C189.305 259.409 189.213 259.003 189.029 258.65C188.845 258.297 188.589 258.029 188.259 257.845C187.937 257.653 187.569 257.558 187.155 257.558Z" fill="#313131"/>
<path d="M193.064 254.51V263.02H192.017V254.51H193.064Z" fill="#313131"/>
<path d="M200.553 259.512C200.553 259.735 200.538 259.926 200.507 260.087H195.459C195.482 260.808 195.685 261.349 196.068 261.709C196.459 262.069 196.935 262.249 197.494 262.249C198 262.249 198.422 262.123 198.759 261.87C199.104 261.609 199.315 261.264 199.392 260.835H200.507C200.431 261.272 200.258 261.663 199.99 262.008C199.729 262.353 199.388 262.621 198.966 262.813C198.545 263.004 198.069 263.1 197.54 263.1C196.935 263.1 196.398 262.97 195.93 262.709C195.463 262.449 195.095 262.077 194.827 261.594C194.566 261.103 194.436 260.528 194.436 259.869C194.436 259.21 194.566 258.635 194.827 258.144C195.095 257.653 195.463 257.278 195.93 257.017C196.398 256.756 196.935 256.626 197.54 256.626C198.154 256.626 198.686 256.756 199.139 257.017C199.599 257.278 199.948 257.627 200.185 258.064C200.431 258.501 200.553 258.984 200.553 259.512ZM199.495 259.581C199.518 259.114 199.442 258.723 199.265 258.409C199.089 258.094 198.847 257.86 198.541 257.707C198.234 257.554 197.901 257.477 197.54 257.477C196.965 257.477 196.482 257.657 196.091 258.018C195.7 258.37 195.49 258.892 195.459 259.581H199.495Z" fill="#313131"/>
<path d="M205.602 254.832C206.545 254.832 207.334 255.066 207.971 255.534C208.615 256.001 209.048 256.638 209.27 257.443H208.166C207.974 256.952 207.652 256.557 207.2 256.258C206.755 255.959 206.226 255.81 205.613 255.81C205.061 255.81 204.567 255.94 204.13 256.201C203.693 256.454 203.348 256.818 203.095 257.293C202.85 257.768 202.727 258.328 202.727 258.972C202.727 259.631 202.853 260.202 203.106 260.685C203.359 261.161 203.708 261.529 204.153 261.789C204.605 262.042 205.123 262.169 205.705 262.169C206.203 262.169 206.66 262.061 207.074 261.847C207.488 261.632 207.825 261.322 208.086 260.915C208.354 260.501 208.515 260.018 208.569 259.466H205.383V258.685H209.454V259.65C209.385 260.294 209.186 260.877 208.856 261.398C208.526 261.92 208.082 262.334 207.522 262.64C206.962 262.947 206.326 263.1 205.613 263.1C204.831 263.1 204.141 262.928 203.543 262.583C202.945 262.23 202.478 261.743 202.14 261.122C201.811 260.494 201.646 259.777 201.646 258.972C201.646 258.167 201.811 257.454 202.14 256.833C202.478 256.204 202.945 255.714 203.543 255.361C204.141 255.009 204.827 254.832 205.602 254.832Z" fill="#313131"/>
<path d="M211.919 254.51V263.02H210.872V254.51H211.919Z" fill="#313131"/>
<path d="M219.408 259.512C219.408 259.735 219.393 259.926 219.362 260.087H214.314C214.337 260.808 214.54 261.349 214.923 261.709C215.314 262.069 215.79 262.249 216.349 262.249C216.855 262.249 217.277 262.123 217.614 261.87C217.959 261.609 218.17 261.264 218.247 260.835H219.362C219.285 261.272 219.113 261.663 218.845 262.008C218.584 262.353 218.243 262.621 217.821 262.813C217.4 263.004 216.924 263.1 216.395 263.1C215.79 263.1 215.253 262.97 214.785 262.709C214.318 262.449 213.95 262.077 213.681 261.594C213.421 261.103 213.29 260.528 213.29 259.869C213.29 259.21 213.421 258.635 213.681 258.144C213.95 257.653 214.318 257.278 214.785 257.017C215.253 256.756 215.79 256.626 216.395 256.626C217.009 256.626 217.541 256.756 217.994 257.017C218.454 257.278 218.802 257.627 219.04 258.064C219.285 258.501 219.408 258.984 219.408 259.512ZM218.35 259.581C218.373 259.114 218.297 258.723 218.12 258.409C217.944 258.094 217.702 257.86 217.396 257.707C217.089 257.554 216.756 257.477 216.395 257.477C215.82 257.477 215.337 257.657 214.946 258.018C214.555 258.37 214.345 258.892 214.314 259.581H218.35Z" fill="#313131"/>
<path d="M223.364 256.626C223.977 256.626 224.495 256.779 224.917 257.086C225.346 257.393 225.645 257.803 225.814 258.317V256.707H226.86V263.123C226.86 263.706 226.737 264.223 226.492 264.676C226.247 265.128 225.902 265.481 225.457 265.734C225.012 265.987 224.495 266.113 223.905 266.113C223.054 266.113 222.36 265.906 221.823 265.492C221.287 265.086 220.945 264.534 220.8 263.836H221.835C221.957 264.258 222.187 264.588 222.525 264.825C222.87 265.07 223.31 265.193 223.847 265.193C224.414 265.193 224.882 265.009 225.25 264.641C225.626 264.281 225.814 263.775 225.814 263.123V261.41C225.645 261.924 225.346 262.334 224.917 262.64C224.495 262.947 223.977 263.1 223.364 263.1C222.805 263.1 222.306 262.97 221.869 262.709C221.432 262.449 221.087 262.077 220.834 261.594C220.589 261.103 220.466 260.528 220.466 259.869C220.466 259.21 220.589 258.635 220.834 258.144C221.087 257.653 221.432 257.278 221.869 257.017C222.306 256.756 222.805 256.626 223.364 256.626ZM223.663 257.558C223.019 257.558 222.502 257.765 222.111 258.179C221.727 258.585 221.536 259.148 221.536 259.869C221.536 260.59 221.727 261.157 222.111 261.571C222.502 261.977 223.019 262.18 223.663 262.18C224.077 262.18 224.445 262.084 224.767 261.893C225.097 261.701 225.354 261.433 225.538 261.088C225.722 260.735 225.814 260.329 225.814 259.869C225.814 259.409 225.722 259.003 225.538 258.65C225.354 258.297 225.097 258.029 224.767 257.845C224.445 257.653 224.077 257.558 223.663 257.558Z" fill="#313131"/>
<path d="M139.509 264.17H227.688V264.745H139.509V264.17Z" fill="#313131"/>
<path fill-rule="evenodd" clip-rule="evenodd" d="M183.689 60.8335C196.448 63.9426 202.218 78.1019 211.031 87.8356C217.699 95.2007 223.13 102.685 228.901 110.771C237.9 123.381 254.604 132.886 254.232 148.371C253.856 163.995 239.876 176.182 227.112 185.206C214.463 194.148 199.038 200.343 183.689 198.244C169.19 196.261 158.995 184.188 148.118 174.402C138.451 165.704 127.962 157.225 124.248 144.765C120.583 132.468 124.716 119.78 128.153 107.418C131.756 94.459 134.271 80.2882 144.578 71.6425C155.2 62.733 170.218 57.5509 183.689 60.8335Z" fill="#F5C2BE"/>
<path d="M210.705 153.733L162.379 106.129L160.515 104.292L158.748 102.551L155.673 105.58L166.302 116.05L171.652 127.164L168.384 133.008C167.996 133.675 167.779 134.462 167.779 135.297C167.779 137.921 169.958 140.067 172.621 140.067H190.683L194.024 143.359C193.192 143.946 192.572 144.777 192.25 145.734C191.929 146.691 191.924 147.723 192.237 148.683C192.549 149.642 193.162 150.48 193.988 151.074C194.813 151.669 195.809 151.99 196.832 151.992C198.454 151.992 199.883 151.205 200.755 149.989L207.631 156.762L210.705 153.733ZM173.638 135.297C173.299 135.297 173.032 135.035 173.032 134.701L173.105 134.415L175.284 130.527H180.998L185.84 135.297H173.638ZM193.322 130.527C195.138 130.527 196.735 129.549 197.559 128.071L206.226 112.592C206.426 112.228 206.527 111.819 206.518 111.405C206.509 110.992 206.392 110.587 206.177 110.232C205.963 109.876 205.658 109.581 205.293 109.376C204.928 109.171 204.516 109.063 204.096 109.062H171.507L193.322 130.527ZM172.621 142.452C169.958 142.452 167.803 144.599 167.803 147.222C167.803 149.846 169.958 151.992 172.621 151.992C175.284 151.992 177.463 149.846 177.463 147.222C177.463 144.599 175.284 142.452 172.621 142.452Z" fill="#6C553D"/>
</g>
</g>
<defs>
<filter id="filter0_d_313:48" x="0.926042" y="0.855304" width="367.389" height="348.887" filterUnits="userSpaceOnUse" color-interpolation-filters="sRGB">
<feFlood flood-opacity="0" result="BackgroundImageFix"/>
<feColorMatrix in="SourceAlpha" type="matrix" values="0 0 0 0 0 0 0 0 0 0 0 0 0 0 0 0 0 0 127 0" result="hardAlpha"/>
<feMorphology radius="7.92926" operator="erode" in="SourceAlpha" result="effect1_dropShadow_313:48"/>
<feOffset dy="7.92926"/>
<feGaussianBlur stdDeviation="18.5016"/>
<feComposite in2="hardAlpha" operator="out"/>
<feColorMatrix type="matrix" values="0 0 0 0 0 0 0 0 0 0 0 0 0 0 0 0 0 0 0.25 0"/>
<feBlend mode="normal" in2="BackgroundImageFix" result="effect1_dropShadow_313:48"/>
<feBlend mode="normal" in="SourceGraphic" in2="effect1_dropShadow_313:48" result="shape"/>
</filter>
<clipPath id="clip0_313:48">
<rect x="30" y="22" width="309.241" height="290.74" rx="26" fill="white"/>
</clipPath>
</defs>
</svg>
