<svg width="376" height="294" viewBox="0 0 376 294" fill="none" xmlns="http://www.w3.org/2000/svg">
<rect width="376" height="294" fill="#272E38"/>
<mask id="mask0" mask-type="alpha" maskUnits="userSpaceOnUse" x="0" y="0" width="376" height="294">
<rect x="0.340454" width="375.319" height="294" fill="#001D41"/>
</mask>
<g mask="url(#mask0)">
<path d="M135.872 45.351C135.872 88.8228 100.631 124.064 57.1596 124.064C13.6877 124.064 -21.5532 88.8228 -21.5532 45.351C-21.5532 1.87909 13.6877 -33.3618 57.1596 -33.3618C100.631 -33.3618 135.872 1.87909 135.872 45.351ZM5.07362 45.351C5.07362 74.1173 28.3933 97.4369 57.1596 97.4369C85.9259 97.4369 109.246 74.1173 109.246 45.351C109.246 16.5847 85.9259 -6.73504 57.1596 -6.73504C28.3933 -6.73504 5.07362 16.5847 5.07362 45.351Z" fill="#333E4D"/>
</g>
<path d="M255.964 209.535C255.964 217.843 258.428 225.965 263.043 232.873C267.659 239.781 274.22 245.165 281.896 248.345C289.571 251.524 298.018 252.356 306.166 250.735C314.315 249.114 321.8 245.114 327.675 239.239C333.55 233.364 337.55 225.879 339.171 217.73C340.792 209.582 339.96 201.135 336.781 193.46C333.601 185.784 328.217 179.223 321.309 174.607C314.401 169.992 306.279 167.528 297.971 167.528L297.971 181.738C303.469 181.738 308.843 183.368 313.414 186.423C317.986 189.477 321.548 193.818 323.652 198.898C325.756 203.977 326.307 209.566 325.234 214.958C324.162 220.35 321.514 225.303 317.627 229.191C313.739 233.078 308.786 235.726 303.394 236.798C298.002 237.871 292.413 237.32 287.334 235.216C282.254 233.112 277.913 229.55 274.859 224.978C271.804 220.407 270.174 215.033 270.174 209.535L255.964 209.535Z" fill="#1E232B"/>
</svg>
