<svg width="1212" height="575" viewBox="0 0 1212 575" fill="none" xmlns="http://www.w3.org/2000/svg">
<path d="M302 151C302 234.395 234.395 302 151 302C67.605 302 0 234.395 0 151C0 67.605 67.605 0 151 0C234.395 0 302 67.605 302 151ZM51.0799 151C51.0799 206.184 95.8157 250.92 151 250.92C206.184 250.92 250.92 206.184 250.92 151C250.92 95.8157 206.184 51.0799 151 51.0799C95.8157 51.0799 51.0799 95.8157 51.0799 151Z" fill="#F793B0"/>
<path d="M744 407C744 462.228 699.228 507 644 507C588.772 507 544 462.228 544 407C544 351.772 588.772 307 644 307C699.228 307 744 351.772 744 407ZM577.828 407C577.828 443.546 607.454 473.172 644 473.172C680.546 473.172 710.172 443.546 710.172 407C710.172 370.454 680.546 340.828 644 340.828C607.454 340.828 577.828 370.454 577.828 407Z" fill="#C9CBEC"/>
<path d="M1023.1 184.482C1023.1 173.087 1019.72 161.947 1013.39 152.472C1007.06 142.997 998.059 135.612 987.531 131.251C977.003 126.89 965.418 125.749 954.242 127.973C943.065 130.196 932.799 135.683 924.741 143.741C916.683 151.799 911.196 162.065 908.973 173.242C906.75 184.418 907.891 196.003 912.251 206.531C916.612 217.059 923.997 226.058 933.472 232.389C942.947 238.72 954.087 242.099 965.482 242.099L965.482 222.608C957.942 222.608 950.57 220.372 944.3 216.183C938.031 211.993 933.144 206.039 930.258 199.072C927.373 192.106 926.618 184.44 928.089 177.044C929.56 169.648 933.191 162.855 938.523 157.523C943.855 152.191 950.648 148.56 958.044 147.089C965.44 145.617 973.106 146.372 980.072 149.258C987.039 152.144 992.994 157.031 997.183 163.3C1001.37 169.57 1003.61 176.941 1003.61 184.482L1023.1 184.482Z" fill="#93D9A3"/>
<path d="M182.866 493.482C182.866 504.877 186.245 516.017 192.576 525.492C198.907 534.967 207.905 542.352 218.433 546.713C228.961 551.073 240.546 552.214 251.723 549.991C262.899 547.768 273.165 542.281 281.223 534.223C289.281 526.165 294.768 515.899 296.992 504.722C299.215 493.546 298.074 481.961 293.713 471.433C289.352 460.905 281.967 451.906 272.492 445.575C263.017 439.244 251.878 435.865 240.482 435.865L240.482 455.356C248.023 455.356 255.394 457.592 261.664 461.781C267.934 465.97 272.82 471.925 275.706 478.892C278.592 485.858 279.347 493.524 277.876 500.92C276.405 508.316 272.773 515.109 267.441 520.441C262.109 525.773 255.316 529.404 247.92 530.875C240.524 532.346 232.859 531.591 225.892 528.706C218.925 525.82 212.971 520.933 208.781 514.664C204.592 508.394 202.356 501.022 202.356 493.482L182.866 493.482Z" fill="#D5E1ED"/>
<path d="M1212 476C1212 530.676 1167.68 575 1113 575C1058.32 575 1014 530.676 1014 476C1014 421.324 1058.32 377 1113 377C1167.68 377 1212 421.324 1212 476ZM1062.3 476C1062.3 504.002 1085 526.702 1113 526.702C1141 526.702 1163.7 504.002 1163.7 476C1163.7 447.998 1141 425.298 1113 425.298C1085 425.298 1062.3 447.998 1062.3 476Z" fill="#7CFFA9"/>
</svg>
