<svg width="33" height="21" viewBox="0 0 33 21" fill="none" xmlns="http://www.w3.org/2000/svg">
<path fill-rule="evenodd" clip-rule="evenodd" d="M21.4344 20.5604C21.2948 20.4211 21.184 20.2556 21.1084 20.0734C21.0328 19.8912 20.9938 19.6958 20.9938 19.4986C20.9938 19.3013 21.0328 19.106 21.1084 18.9238C21.184 18.7415 21.2948 18.576 21.4344 18.4367L29.3741 10.5001L21.4344 2.56346C21.1528 2.28184 20.9946 1.8999 20.9946 1.50164C20.9946 1.10338 21.1528 0.721432 21.4344 0.439819C21.7161 0.158207 22.098 0 22.4963 0C22.8945 0 23.2765 0.158207 23.5581 0.439819L32.5565 9.43828C32.6962 9.57759 32.807 9.74309 32.8826 9.92529C32.9582 10.1075 32.9971 10.3028 32.9971 10.5001C32.9971 10.6974 32.9582 10.8927 32.8826 11.0749C32.807 11.2571 32.6962 11.4226 32.5565 11.5619L23.5581 20.5604C23.4188 20.7 23.2533 20.8108 23.0711 20.8865C22.8889 20.9621 22.6935 21.001 22.4963 21.001C22.299 21.001 22.1037 20.9621 21.9215 20.8865C21.7393 20.8108 21.5738 20.7 21.4344 20.5604Z" fill="#514949"/>
<path fill-rule="evenodd" clip-rule="evenodd" d="M0 10.4999C0 10.1021 0.158008 9.72067 0.439265 9.43941C0.720521 9.15815 1.10199 9.00015 1.49974 9.00015L28.4951 9.00015C28.8929 9.00015 29.2743 9.15815 29.5556 9.43941C29.8369 9.72067 29.9949 10.1021 29.9949 10.4999C29.9949 10.8976 29.8369 11.2791 29.5556 11.5604C29.2743 11.8416 28.8929 11.9996 28.4951 11.9996L1.49974 11.9996C1.10199 11.9996 0.720521 11.8416 0.439265 11.5604C0.158008 11.2791 0 10.8976 0 10.4999Z" fill="#514949"/>
</svg>
