<svg width="30" height="30" viewBox="0 0 30 30" fill="none" xmlns="http://www.w3.org/2000/svg">
<path fill-rule="evenodd" clip-rule="evenodd" d="M15 0C18.9782 0 22.7936 1.58035 25.6066 4.3934C28.4196 7.20644 30 11.0218 30 15C30 18.9782 28.4196 22.7936 25.6066 25.6066C22.7936 28.4196 18.9782 30 15 30C11.0218 30 7.20644 28.4196 4.3934 25.6066C1.58035 22.7936 0 18.9782 0 15C0 11.0218 1.58035 7.20644 4.3934 4.3934C7.20644 1.58035 11.0218 0 15 0ZM26.2938 9.23077C24.8138 6.3531 22.2953 4.14557 19.2485 3.05538C20.2731 4.99385 21.0138 7.07077 21.4477 9.23077H26.2938ZM27.6369 16.1423C27.6738 15.7627 27.6923 15.3814 27.6923 15C27.69 13.8289 27.5246 12.6639 27.2008 11.5385H21.7962C21.87 12.3023 21.9231 13.0708 21.9231 13.8462C21.9183 15.3966 21.7591 16.9427 21.4477 18.4615H27.2008C27.42 17.7023 27.5654 16.9269 27.6392 16.1423H27.6369ZM19.4792 16.1423L19.4931 16.0246C19.5718 15.3011 19.6126 14.5739 19.6154 13.8462C19.5999 13.0743 19.5413 12.3038 19.44 11.5385H10.56C10.4578 12.3037 10.3993 13.0742 10.3846 13.8462C10.3903 15.3999 10.5706 16.9481 10.9223 18.4615H19.0777C19.2554 17.6954 19.3892 16.9223 19.4792 16.1423ZM19.0362 9.23077C18.4925 6.79004 17.5113 4.46795 16.14 2.37692C15.7615 2.34462 15.3831 2.30769 15 2.30769C14.7596 2.30887 14.5194 2.32042 14.28 2.34231L13.86 2.37692L13.8462 2.4C12.4821 4.48491 11.5057 6.79894 10.9638 9.23077H19.0362ZM8.55231 9.23077C8.99496 7.07226 9.74572 4.98863 10.7815 3.04385C7.7215 4.13031 5.19107 6.34299 3.70615 9.23077H8.55231ZM2.79923 11.5385C2.4759 12.664 2.31048 13.829 2.30769 15C2.31048 16.171 2.4759 17.336 2.79923 18.4615H8.55231C8.23944 16.9429 8.08018 15.3967 8.07692 13.8462C8.07692 13.0708 8.13 12.3023 8.20385 11.5385H2.79923ZM9.15462 20.7692H3.70846C4.5808 22.4732 5.82628 23.9584 7.35217 25.1143C8.87805 26.2702 10.645 27.067 12.5215 27.4454C11.0446 25.4173 9.90742 23.1625 9.15462 20.7692ZM15 26.8708C16.4756 25.0457 17.6291 22.9822 18.4108 20.7692H11.5892C12.3709 22.9822 13.5244 25.0457 15 26.8708ZM20.8454 20.7692C20.0925 23.1625 18.9554 25.4173 17.4785 27.4454C19.3548 27.0667 21.1217 26.2698 22.6475 25.1139C24.1734 23.958 25.4189 22.473 26.2915 20.7692H20.8454Z" fill="black"/>
</svg>
