<svg width="44" height="16" viewBox="0 0 44 16" fill="none" xmlns="http://www.w3.org/2000/svg">
<path d="M28.2251 16L34.7017 0H30.4084L25.9784 10.3392L22.8276 0H19.5267L16.1451 10.3392L13.7592 5.62833L11.6009 12.25L13.7926 16H18.0176L21.0742 6.7275L23.9909 16H28.2251Z" fill="black"/>
<path d="M4.73246 10.5075H7.36996C8.09058 10.5176 8.80911 10.4276 9.50496 10.24L10.1866 8.14083L12.0933 2.275C11.9462 2.04344 11.7789 1.82537 11.5933 1.62333C10.6166 0.541111 9.18524 0 7.29913 0H0.666626V16H4.73246V10.5075ZM8.22413 3.68083C8.6069 4.06528 8.79801 4.57972 8.79746 5.22417C8.7969 5.86861 8.63024 6.38333 8.29746 6.76833C7.92857 7.19167 7.24968 7.40306 6.26079 7.4025H4.73246V3.10417H6.26746C7.18913 3.10417 7.84135 3.29639 8.22413 3.68083ZM32.0708 13.1342L33.3033 10.03H36.8608L35.1725 5.32083L37.2841 0L43.3333 16H38.8725L37.8391 13.1342H32.0708Z" fill="black"/>
</svg>
