<svg width="30" height="30" viewBox="0 0 30 30" fill="none" xmlns="http://www.w3.org/2000/svg">
<path fill-rule="evenodd" clip-rule="evenodd" d="M0 3.21429C0 2.3618 0.338647 1.54424 0.941443 0.941443C1.54424 0.338647 2.3618 0 3.21429 0H5.35714C6.20962 0 7.02719 0.338647 7.62999 0.941443C8.23278 1.54424 8.57143 2.3618 8.57143 3.21429V5.35714C8.57143 6.20962 8.23278 7.02719 7.62999 7.62999C7.02719 8.23278 6.20962 8.57143 5.35714 8.57143H3.21429C2.3618 8.57143 1.54424 8.23278 0.941443 7.62999C0.338647 7.02719 0 6.20962 0 5.35714V3.21429ZM3.21429 2.14286C2.93012 2.14286 2.6576 2.25574 2.45667 2.45667C2.25574 2.6576 2.14286 2.93012 2.14286 3.21429V5.35714C2.14286 5.6413 2.25574 5.91383 2.45667 6.11476C2.6576 6.31569 2.93012 6.42857 3.21429 6.42857H5.35714C5.6413 6.42857 5.91383 6.31569 6.11476 6.11476C6.31569 5.91383 6.42857 5.6413 6.42857 5.35714V3.21429C6.42857 2.93012 6.31569 2.6576 6.11476 2.45667C5.91383 2.25574 5.6413 2.14286 5.35714 2.14286H3.21429ZM21.4286 24.6429C21.4286 23.7904 21.7672 22.9728 22.37 22.37C22.9728 21.7672 23.7904 21.4286 24.6429 21.4286H26.7857C27.6382 21.4286 28.4558 21.7672 29.0586 22.37C29.6614 22.9728 30 23.7904 30 24.6429V26.7857C30 27.6382 29.6614 28.4558 29.0586 29.0586C28.4558 29.6614 27.6382 30 26.7857 30H24.6429C23.7904 30 22.9728 29.6614 22.37 29.0586C21.7672 28.4558 21.4286 27.6382 21.4286 26.7857V24.6429ZM24.6429 23.5714C24.3587 23.5714 24.0862 23.6843 23.8852 23.8852C23.6843 24.0862 23.5714 24.3587 23.5714 24.6429V26.7857C23.5714 27.0699 23.6843 27.3424 23.8852 27.5433C24.0862 27.7443 24.3587 27.8571 24.6429 27.8571H26.7857C27.0699 27.8571 27.3424 27.7443 27.5433 27.5433C27.7443 27.3424 27.8571 27.0699 27.8571 26.7857V24.6429C27.8571 24.3587 27.7443 24.0862 27.5433 23.8852C27.3424 23.6843 27.0699 23.5714 26.7857 23.5714H24.6429Z" fill="black"/>
<path fill-rule="evenodd" clip-rule="evenodd" d="M12.3579 7.81072C11.3636 6.26358 9.84 5.35715 7.5 5.35715V3.21429H19.2857V5.35715H13.1229C13.5086 5.74287 13.8514 6.17358 14.16 6.65358C15.5271 8.77929 16.0714 11.6979 16.0714 15C16.0714 19.2707 16.6221 21.6257 17.5993 22.9286C18.495 24.1264 19.9329 24.6429 22.5 24.6429V26.7857H10.7143V24.6429H16.2364C16.1121 24.5055 15.9941 24.3625 15.8829 24.2143C14.4493 22.3007 13.9286 19.3007 13.9286 15C13.9286 11.8714 13.4014 9.43501 12.3579 7.81072Z" fill="black"/>
<path d="M21.4286 4.28574C21.4286 4.85406 21.2028 5.39911 20.801 5.80097C20.3991 6.20283 19.854 6.4286 19.2857 6.4286C18.7174 6.4286 18.1724 6.20283 17.7705 5.80097C17.3686 5.39911 17.1429 4.85406 17.1429 4.28574C17.1429 3.71742 17.3686 3.17238 17.7705 2.77051C18.1724 2.36865 18.7174 2.14288 19.2857 2.14288C19.854 2.14288 20.3991 2.36865 20.801 2.77051C21.2028 3.17238 21.4286 3.71742 21.4286 4.28574ZM12.8572 25.7143C12.8572 26.2826 12.6314 26.8277 12.2295 27.2295C11.8277 27.6314 11.2826 27.8572 10.7143 27.8572C10.146 27.8572 9.60093 27.6314 9.19907 27.2295C8.79721 26.8277 8.57144 26.2826 8.57144 25.7143C8.57144 25.146 8.79721 24.6009 9.19907 24.1991C9.60093 23.7972 10.146 23.5715 10.7143 23.5715C11.2826 23.5715 11.8277 23.7972 12.2295 24.1991C12.6314 24.6009 12.8572 25.146 12.8572 25.7143Z" fill="black"/>
</svg>
