<svg width="129" height="38" viewBox="0 0 129 38" fill="none" xmlns="http://www.w3.org/2000/svg">
<path d="M0.839508 29.6315V15.0293H18.7645V14.1752H0.839508V0.853869H19.8977V0H0V30.4853H20.0655V29.6315H0.83976H0.839508ZM36.2276 8.5392L28.7975 18.4876L21.5349 8.53946H20.4435L28.2936 19.1283L19.6876 30.4851H20.6952L28.797 19.7681L36.9409 30.4851H37.9902L29.3427 19.1277L37.2346 8.53895H36.2273L36.2276 8.5392ZM40.5093 38V24.3373H40.5932C41.0971 26.3298 42.0905 27.9309 43.5738 29.1407C45.057 30.3503 46.9459 30.9553 49.2407 30.9553C50.724 30.9553 52.0394 30.6493 53.1868 30.0374C54.3342 29.4254 55.2926 28.5928 56.0623 27.5396C56.8318 26.4863 57.4196 25.2624 57.8255 23.8676C58.2312 22.473 58.4342 21.0069 58.4342 19.4701C58.4342 17.819 58.2241 16.296 57.8043 14.9015C57.3846 13.5066 56.7759 12.2968 55.9784 11.2723C55.1808 10.2475 54.2153 9.45022 53.0817 8.88132C51.9485 8.3119 50.668 8.02719 49.2407 8.02719C48.1493 8.02719 47.1349 8.19094 46.1974 8.51819C45.2598 8.8457 44.4274 9.30799 43.6998 9.90586C42.9679 10.5083 42.3308 11.221 41.8106 12.0193C41.279 12.8306 40.8731 13.7201 40.5932 14.688H40.5093V8.5392H39.6698V38H40.5093ZM49.2407 30.1437C46.6103 30.1437 44.4972 29.2258 42.9021 27.3899C41.307 25.5541 40.5093 22.9138 40.5093 19.4696C40.5093 18.0463 40.7053 16.6943 41.0971 15.4135C41.4889 14.1327 42.0555 13.0082 42.797 12.0405C43.5388 11.0726 44.4554 10.3041 45.5466 9.73493C46.638 9.16551 47.8696 8.8808 49.2407 8.8808C50.6401 8.8808 51.8646 9.16551 52.9139 9.73493C53.9633 10.3041 54.831 11.0798 55.5166 12.0618C56.2022 13.0438 56.7199 14.1683 57.0699 15.4347C57.4196 16.7014 57.5945 18.0463 57.5945 19.4696C57.5945 20.7507 57.4337 22.0245 57.1117 23.291C56.79 24.5577 56.2931 25.6963 55.6214 26.707C54.95 27.7172 54.0896 28.5426 53.0399 29.1833C51.9903 29.8237 50.724 30.1437 49.2407 30.1437ZM63.0518 30.4853V18.0607C63.0518 16.8652 63.2196 15.6979 63.5557 14.5596C63.8913 13.421 64.409 12.4175 65.1087 11.5495C65.8084 10.6813 66.6968 9.99811 67.7744 9.49994C68.8517 9.00176 70.1322 8.79547 71.6154 8.8808V8.02693C70.3279 7.99874 69.2017 8.14071 68.2362 8.45387C67.2705 8.76702 66.438 9.19396 65.7383 9.73493C65.0387 10.2756 64.4791 10.9089 64.0593 11.6349C63.6399 12.3597 63.3286 13.1439 63.1357 13.9617H63.0518V8.5392H62.2123V30.4856H63.0518V30.4853ZM72.6648 19.6831H90.7155C90.7717 18.1744 90.6248 16.723 90.2748 15.3281C89.9251 13.9333 89.3652 12.695 88.5958 11.6136C87.8261 10.5319 86.8326 9.66369 85.6152 9.00893C84.3977 8.35418 82.9495 8.02693 81.2705 8.02693C80.0669 8.02693 78.8916 8.2832 77.7442 8.79572C76.5968 9.30799 75.5892 10.055 74.7217 11.037C73.8543 12.019 73.1546 13.2216 72.623 14.6452C72.0913 16.0682 71.8253 17.6906 71.8253 19.5124C71.8253 21.1348 72.0072 22.6506 72.371 24.0595C72.7348 25.4685 73.2944 26.6926 74.05 27.7315C74.8059 28.7704 75.7784 29.5746 76.9677 30.1437C78.1569 30.7132 79.5912 30.9835 81.2705 30.9551C83.7331 30.9551 85.8041 30.2503 87.4832 28.8417C89.1624 27.4325 90.1559 25.4472 90.4638 22.8853H89.6243C89.2604 25.305 88.3297 27.1196 86.8326 28.3291C85.3353 29.539 83.4534 30.1437 81.1863 30.1437C79.6472 30.1437 78.3458 29.8734 77.2823 29.3327C76.2191 28.7919 75.3514 28.0516 74.6797 27.1124C74.0082 26.1729 73.5114 25.07 73.1896 23.8033C72.8676 22.5368 72.6928 21.1632 72.6648 19.6831ZM89.876 18.8292H72.665C72.7487 17.2921 73.0286 15.9116 73.5043 14.6877C73.9802 13.4636 74.6028 12.4175 75.3725 11.5495C76.142 10.6813 77.0377 10.0196 78.0591 9.564C79.0805 9.10862 80.179 8.8808 81.3544 8.8808C82.7537 8.8808 83.9848 9.14424 85.0485 9.67086C86.1118 10.1975 87.0004 10.9163 87.7142 11.8271C88.4277 12.7378 88.9664 13.7982 89.3302 15.0078C89.6941 16.2176 89.876 17.4915 89.876 18.8292ZM108.137 15.0293H108.976C108.976 12.5812 108.277 10.8023 106.878 9.69213C105.478 8.582 103.575 8.02693 101.168 8.02693C99.8248 8.02693 98.6916 8.19786 97.7679 8.53946C96.8445 8.8808 96.0889 9.32209 95.5011 9.8628C94.9135 10.4035 94.4938 11.0014 94.2418 11.6561C93.9899 12.3109 93.8639 12.9372 93.8639 13.5348C93.8639 14.7303 94.0738 15.6838 94.4938 16.3955C94.9135 17.1071 95.5711 17.6622 96.4666 18.0607C97.0823 18.3451 97.7817 18.6014 98.5656 18.8295C99.3491 19.057 100.259 19.2989 101.294 19.5549C102.218 19.783 103.127 20.0106 104.023 20.2381C104.918 20.466 105.709 20.7719 106.395 21.1561C107.08 21.5405 107.64 22.0315 108.074 22.6293C108.507 23.2269 108.724 24.0098 108.724 24.9775C108.724 25.9169 108.508 26.7139 108.074 27.3684C107.644 28.0197 107.077 28.5665 106.416 28.9698C105.744 29.3824 104.995 29.6812 104.17 29.8662C103.344 30.0512 102.54 30.1437 101.756 30.1437C99.2093 30.1437 97.2572 29.5674 95.8999 28.4147C94.5426 27.2618 93.8641 25.4472 93.8641 22.9707H93.0244C93.0244 25.7319 93.7591 27.7528 95.2282 29.0339C96.6976 30.3147 98.8735 30.9551 101.756 30.9551C102.679 30.9551 103.61 30.8482 104.548 30.6347C105.485 30.4213 106.325 30.0727 107.066 29.5887C107.801 29.1114 108.419 28.4688 108.871 27.7103C109.333 26.9415 109.564 26.0023 109.564 24.8921C109.564 23.8389 109.361 22.985 108.955 22.3303C108.549 21.6758 108.018 21.1348 107.36 20.7079C106.702 20.2809 105.961 19.9465 105.135 19.7046C104.305 19.4613 103.472 19.2263 102.637 18.9999C101.61 18.7257 100.581 18.4553 99.552 18.1888C98.6706 17.961 97.852 17.6906 97.0964 17.3775C96.3688 17.0643 95.788 16.6161 95.3542 16.0326C94.9203 15.4491 94.7036 14.6165 94.7036 13.5348C94.7036 13.3357 94.7596 12.9797 94.8714 12.4675C94.9833 11.9549 95.2494 11.4355 95.6691 10.9089C96.0889 10.3825 96.7324 9.91278 97.6001 9.49994C98.4676 9.08735 99.657 8.8808 101.168 8.8808C102.204 8.8808 103.148 8.99484 104.002 9.2224C104.855 9.45022 105.59 9.81309 106.206 10.3113C106.821 10.8094 107.297 11.4427 107.633 12.2112C107.969 12.98 108.137 13.9192 108.137 15.0293ZM127.573 15.0293H128.412C128.412 12.5812 127.713 10.8023 126.313 9.69213C124.914 8.582 123.011 8.02693 120.604 8.02693C119.261 8.02693 118.127 8.19786 117.204 8.53946C116.28 8.8808 115.525 9.32209 114.937 9.8628C114.349 10.4035 113.93 11.0014 113.678 11.6561C113.426 12.3109 113.3 12.9372 113.3 13.5348C113.3 14.7303 113.51 15.6838 113.93 16.3955C114.349 17.1071 115.007 17.6622 115.903 18.0607C116.518 18.3451 117.218 18.6014 118.001 18.8295C118.785 19.057 119.695 19.2989 120.73 19.5549C121.654 19.783 122.563 20.0106 123.459 20.2381C124.354 20.466 125.145 20.7719 125.831 21.1561C126.516 21.5405 127.076 22.0315 127.51 22.6293C127.944 23.2269 128.16 24.0098 128.16 24.9775C128.16 25.9169 127.944 26.7139 127.51 27.3684C127.08 28.0197 126.514 28.5665 125.852 28.9698C125.18 29.3824 124.431 29.6812 123.606 29.8662C122.78 30.0512 121.976 30.1437 121.192 30.1437C118.645 30.1437 116.693 29.5674 115.336 28.4147C113.979 27.2618 113.3 25.4472 113.3 22.9707H112.461C112.461 25.7319 113.195 27.7528 114.664 29.0339C116.134 30.3147 118.309 30.9551 121.192 30.9551C122.116 30.9551 123.046 30.8482 123.984 30.6347C124.921 30.4213 125.761 30.0727 126.502 29.5887C127.238 29.1114 127.855 28.4688 128.307 27.7103C128.769 26.9415 129 26.0023 129 24.8921C129 23.8389 128.797 22.985 128.391 22.3303C127.986 21.6758 127.454 21.1348 126.796 20.7079C126.139 20.2809 125.397 19.9465 124.571 19.7046C123.741 19.4613 122.908 19.2263 122.074 18.9999C121.046 18.7257 120.018 18.4553 118.988 18.1888C118.107 17.961 117.288 17.6906 116.532 17.3775C115.805 17.0643 115.224 16.6161 114.79 16.0326C114.356 15.4491 114.14 14.6165 114.14 13.5348C114.14 13.3357 114.195 12.9797 114.308 12.4675C114.419 11.9549 114.686 11.4355 115.105 10.9089C115.525 10.3825 116.169 9.91278 117.036 9.49994C117.904 9.08735 119.093 8.8808 120.604 8.8808C121.64 8.8808 122.584 8.99484 123.438 9.2224C124.292 9.45022 125.026 9.81309 125.642 10.3113C126.257 10.8094 126.733 11.4427 127.069 12.2112C127.405 12.98 127.573 13.9192 127.573 15.0293H127.573Z" fill="#222222"/>
</svg>
