<svg width="27" height="60" viewBox="0 0 27 60" fill="none" xmlns="http://www.w3.org/2000/svg">
<path d="M26.1553 23.6139C23.0258 9.81434 15.6321 5.28951 14.8376 3.55549C13.965 2.32567 13.0254 0 13.0254 0C13.0161 0.048374 13.0161 0.0781426 13.0068 0.126517V0.156285C13.0068 0.195356 12.9975 0.213962 12.9975 0.253033V0.292104H12.9882V0.41676H12.9789C12.9789 0.435366 12.9789 0.465135 12.9696 0.474437V0.532114C12.9696 0.550719 12.9696 0.571185 12.9603 0.580488V0.628862C12.9603 0.65863 12.9603 0.686538 12.951 0.707004V0.716307C12.9494 0.759025 12.9431 0.801442 12.9324 0.842824V0.861429C12.9231 0.870732 12.9231 0.880034 12.9231 0.891198V0.930269H12.9138V0.987946H12.9045V1.02702H12.8859V1.08469H12.8766V1.13307H12.8673V1.17214H12.858V1.21121H12.8487V1.25028H12.8394V1.28935H12.8301V1.31912H12.8208V1.35819H12.8115V1.39726H12.8022C12.7929 1.39726 12.7929 1.40657 12.7929 1.40657V1.42517L12.7836 1.44378C12.7836 1.46238 12.7743 1.48285 12.765 1.50145C12.7557 1.51076 12.7557 1.51076 12.7557 1.52006V1.53866H12.7464V1.55727H12.7278V1.60564H12.7091V1.63541H12.6998V1.64472H12.6905V1.66332H12.6812V1.69309H12.6719V1.71169H12.6533V1.74146H12.644V1.76007H12.6347V1.77867H12.6254V1.80844H12.6161V1.82705H12.6068V1.83635H12.5975V1.85496H12.5789V1.88472H12.5696V1.89403H12.5603V1.91263H12.551V1.9424H12.5417V1.9517H12.5324V1.97031H12.5231V1.97961H12.5138V2.00938H12.4952V2.01868H12.4859V2.03729H12.4766V2.04659H12.4673V2.0652H12.458V2.0838C12.4487 2.0838 12.4487 2.09311 12.4487 2.09311V2.10241H12.4394L12.4096 2.15078C12.4096 2.15078 12.391 2.16939 12.391 2.18055C12.3817 2.18055 12.3817 2.18985 12.3817 2.18985V2.19916H12.3724V2.20846H12.3631V2.22706H12.3445V2.23637H12.3352V2.24567H12.3259V2.27358H12.3166V2.28288H12.3073V2.29218H12.298V2.31079H12.2887V2.29218H12.2701V2.30149H12.2608V2.32009H12.2515V2.3387H12.2422V2.348H12.2329V2.3573H12.2235V2.3666H12.2142V2.38521H12.1956V2.39451H12.1863V2.41312H12.177V2.42242H12.1677V2.43172H12.1584V2.46149H12.1491V2.47079H12.1398V2.4801H12.1305V2.4894H12.1212V2.4987H12.1026V2.51731H12.0933V2.52661H12.084V2.53591H12.0747V2.55452H12.0654V2.56382H12.0468V2.57312H12.0375V2.58243H12.0282V2.60103H12.0189V2.61964H12.0096V2.62894H12.0003V2.63824H11.9817V2.64755H11.9724V2.65685H11.9631V2.67545H11.9538V2.68476H11.9445V2.70336H11.9352V2.71266H11.9259V2.72197H11.9166V2.73127H11.9073V2.74057H11.8886V2.74987C11.8793 2.74987 11.8793 2.75918 11.8793 2.75918L11.87 2.76848L11.8607 2.77778V2.79639H11.8514V2.80569H11.8421V2.81499H11.8328V2.8243H11.8235L11.8049 2.8429V2.8522C11.7863 2.86151 11.7863 2.87081 11.7659 2.89128C11.7659 2.89128 11.7472 2.90988 11.7361 2.90988C11.7063 2.92849 11.6691 2.96756 11.6393 2.99733C11.6207 3.00663 11.6003 3.02709 11.5817 3.0364C11.5426 3.07547 11.5035 3.10338 11.4644 3.13315C11.4068 3.19082 11.3472 3.22989 11.2803 3.28757H11.271L10.8151 3.68573H10.8058C10.3891 4.05411 9.89415 4.52855 9.33227 5.09043L9.2839 5.13881C5.91074 8.62731 0.591467 15.9039 0.038887 27.6588C-0.0187897 28.6281 -0.00948857 29.577 0.0481881 30.4979V30.5165C0.319827 35.1493 1.77291 39.1029 3.59437 42.3198C4.31068 43.5998 5.09583 44.7627 5.89028 45.8083C8.62341 49.414 11.4142 51.5555 12.1212 52.0783C13.2171 54.6068 13.1185 58.9679 13.1185 58.9679L14.7167 59.5C14.7167 59.5 14.3874 55.284 14.8432 53.2393C14.9883 52.6086 15.3176 52.0672 15.7065 51.602C15.9781 51.4178 16.754 50.8559 17.6842 50.0038C17.7326 49.9554 17.7624 49.9164 17.8014 49.868C21.5709 46.3497 28.6167 37.6871 26.2036 23.5786L26.1553 23.6139Z" fill="black"/>
</svg>
