<svg width="53" height="60" viewBox="0 0 53 60" fill="none" xmlns="http://www.w3.org/2000/svg">
<path d="M26.3942 59.5C25.5747 59.5 24.809 59.2795 24.0938 58.8981L16.8264 54.5835C15.7388 53.9786 16.284 53.7581 16.6118 53.6479C18.0897 53.1562 18.3639 53.049 19.8925 52.1789C20.0593 52.0686 20.2768 52.1193 20.4437 52.2295L26.0157 55.5668C26.2362 55.6741 26.5104 55.6741 26.6743 55.5668L48.4827 42.9418C48.7032 42.8346 48.8104 42.6141 48.8104 42.3399V17.1376C48.8104 16.8665 48.7032 16.646 48.4827 16.5387L26.6743 3.96737C26.4567 3.85712 26.1826 3.85712 26.0157 3.96737L4.20137 16.5357C3.98386 16.643 3.87361 16.9201 3.87361 17.1347V42.334C3.87361 42.5515 3.98386 42.8286 4.20137 42.9359L10.1608 46.3834C13.3848 48.0162 15.411 46.1003 15.411 44.1933V19.3247C15.411 18.997 15.6821 18.6662 16.0665 18.6662H18.8555C19.1773 18.6662 19.5111 18.9404 19.5111 19.3247V44.1963C19.5111 48.5139 17.1631 51.0317 13.063 51.0317C11.8056 51.0317 10.8223 51.0317 8.03326 49.661L2.29735 46.3864C1.59848 45.9801 1.01849 45.3975 0.615343 44.6968C0.212195 43.9961 1.14814e-05 43.2019 0 42.3936V17.1913C0 15.5524 0.873052 14.0209 2.29735 13.2015L24.0968 0.576476C24.8045 0.19801 25.5946 0 26.3971 0C27.1997 0 27.9898 0.19801 28.6975 0.576476L50.4999 13.2015C51.9272 14.0179 52.7973 15.5524 52.7973 17.1913V42.3936C52.7973 44.0294 51.9242 45.561 50.4999 46.3864L28.6975 59.0084C27.9794 59.3361 27.1599 59.5 26.3942 59.5ZM33.1164 42.1701C23.5515 42.1701 21.5849 37.7959 21.5849 34.0832C21.5849 33.7554 21.8591 33.4247 22.2405 33.4247H25.0831C25.4109 33.4247 25.682 33.6422 25.682 33.9729C26.12 36.8662 27.3745 38.2905 33.173 38.2905C37.7617 38.2905 39.7343 37.2476 39.7343 34.7894C39.7343 33.3681 39.183 32.3311 32.0258 31.6219C26.0694 31.026 22.3537 29.706 22.3537 24.9534C22.3537 20.5285 26.0694 17.9034 32.3029 17.9034C39.2963 17.9034 42.7408 20.314 43.1758 25.5553C43.1706 25.7322 43.1125 25.9034 43.009 26.0469C42.8987 26.1542 42.7378 26.2645 42.5739 26.2645H39.7343C39.5939 26.2615 39.4585 26.2118 39.3495 26.1233C39.2405 26.0348 39.1641 25.9125 39.1324 25.7758C38.4739 22.7603 36.7814 21.783 32.3029 21.783C27.2702 21.783 26.6683 23.5321 26.6683 24.8431C26.6683 26.4254 27.3745 26.917 34.1593 27.793C40.8815 28.6661 44.0519 29.9235 44.0519 34.6285C43.9923 39.4407 40.062 42.1701 33.1164 42.1701Z" fill="black"/>
</svg>
