<svg width="60" height="60" viewBox="0 0 60 60" fill="none" xmlns="http://www.w3.org/2000/svg">
<path d="M0 0H59.5041V59.5041H0V0ZM54.6281 45.3124C54.195 42.5984 52.4264 40.3174 47.1835 38.1884C45.3587 37.3322 43.3322 36.7405 42.724 35.3653C42.4992 34.5455 42.4661 34.1025 42.6116 33.6165C42.9851 32.0165 44.8826 31.5372 46.3703 31.9802C47.3388 32.2777 48.2314 33.0215 48.7901 34.2149C51.3521 32.5388 51.3521 32.5388 53.1405 31.4248C52.4694 30.3868 52.1355 29.9339 51.6893 29.4876C50.1256 27.7421 48.043 26.8496 44.6612 26.9256L42.9157 27.1471C41.2397 27.557 39.6397 28.4529 38.6744 29.6397C35.8479 32.8397 36.6645 38.4165 40.086 40.7273C43.4678 43.2562 48.4198 43.8116 49.0512 46.1917C49.6463 49.0942 46.8959 50.0231 44.1752 49.6893C42.1686 49.2397 41.0512 48.238 39.8248 46.3769L35.2893 48.9818C35.8083 50.1686 36.4033 50.6909 37.2959 51.7322C41.6099 56.0826 52.3967 55.8612 54.3306 49.2397C54.4 49.0182 54.9256 47.4942 54.5157 45.1504L54.6281 45.3124ZM32.357 27.3488H26.7835C26.7835 32.1521 26.7603 36.9289 26.7603 41.7421C26.7603 44.7967 26.9157 47.6 26.4165 48.4628C25.6 50.1719 23.4876 49.9537 22.5322 49.6496C21.5504 49.1669 21.0512 48.4959 20.4727 47.5306C20.3174 47.2727 20.2017 47.0479 20.1587 47.0479L15.6364 49.838C16.3934 51.4017 17.4975 52.7438 18.9223 53.5967C21.0413 54.8628 23.8876 55.2727 26.8694 54.605C28.8132 54.043 30.4893 52.8893 31.3587 51.1041C32.6281 48.8 32.357 45.9702 32.3471 42.8099C32.3736 37.7157 32.3471 32.6182 32.3471 27.4876L32.357 27.3488Z" fill="black"/>
</svg>
