<svg width="67" height="60" viewBox="0 0 67 60" fill="none" xmlns="http://www.w3.org/2000/svg">
<path d="M33.0579 23.7887C29.8079 23.7887 27.1612 26.466 27.1612 29.7535C27.1612 33.041 29.8079 35.7183 33.0579 35.7183C36.3079 35.7183 38.9545 33.041 38.9545 29.7535C38.9545 26.466 36.3079 23.7887 33.0579 23.7887ZM16.5496 41.6078L15.2479 41.2817C5.56198 38.7989 0 34.598 0 29.743C0 24.8881 5.56405 20.6872 15.2479 18.2043L16.5496 17.8783L16.9153 19.1845C17.8979 22.6059 19.1541 25.9406 20.6715 29.1558L20.9504 29.743L20.6715 30.3408C19.1509 33.5546 17.8946 36.8896 16.9153 40.312L16.5496 41.6078ZM14.6467 21.2515C7.28513 23.3415 2.76653 26.5517 2.76653 29.743C2.76653 32.9344 7.28719 36.1321 14.6467 38.2346C15.5489 35.335 16.638 32.4984 17.907 29.743C16.6362 26.9884 15.547 24.1517 14.6467 21.2515ZM49.5661 41.6078L49.2004 40.3015C48.2195 36.883 46.9633 33.5516 45.4442 30.3408L45.1653 29.743L45.4442 29.1453C46.9648 25.9315 48.2211 22.5965 49.2004 19.1741L49.5661 17.8783L50.8678 18.2043C60.5537 20.6872 66.1157 24.8881 66.1157 29.743C66.1157 34.598 60.5517 38.7989 50.8678 41.2817L49.5661 41.6078ZM48.2087 29.743C49.4819 32.4966 50.5712 35.3335 51.469 38.2346C58.8409 36.1342 63.3492 32.9344 63.3492 29.743C63.3492 26.5517 58.8285 23.354 51.469 21.2515C50.5647 24.1503 49.4757 26.9867 48.2087 29.743ZM14.624 21.2411L14.2583 19.9348C11.5351 10.2249 12.3636 3.25901 16.5289 0.830473C20.6178 -1.55418 27.1715 1.26519 34.0475 8.40659L34.9835 9.37634L34.0475 10.3461C31.6057 12.9159 29.3745 15.6824 27.376 18.6182L27 19.1511L26.3533 19.2054C22.8378 19.4861 19.3505 20.0544 15.9256 20.9046L14.624 21.2411ZM19.8533 2.76996C19.1116 2.76996 18.4545 2.92253 17.905 3.24856C15.1715 4.84947 14.688 10.4004 16.5702 17.8888C19.5071 17.2242 22.4839 16.7551 25.4814 16.4843C27.2071 13.9981 29.0942 11.6305 31.1302 9.39724C26.8368 5.16297 22.7686 2.76787 19.8533 2.76787V2.76996ZM46.2727 59.502C46.2624 59.502 46.2624 59.502 46.2727 59.502C42.345 59.502 37.2975 56.5197 32.0682 51.0774L31.1322 50.1077L32.0682 49.1379C34.51 46.568 36.7412 43.8016 38.7397 40.8658L39.1054 40.3329L39.7521 40.2681C43.2721 39.9968 46.7636 39.4285 50.1901 38.569L51.4917 38.2429L51.8574 39.5492C54.5806 49.2591 53.7521 56.2145 49.5868 58.641C48.5797 59.2265 47.434 59.5234 46.2727 59.5V59.502ZM34.9835 50.0868C39.2769 54.321 43.345 56.7161 46.2603 56.7161H46.2707C47.0021 56.7161 47.6591 56.5531 48.2087 56.2375C50.9422 54.6366 51.438 49.0857 49.5434 41.5973C46.6071 42.2625 43.63 42.7283 40.6322 42.9913C38.9066 45.4809 37.0195 47.852 34.9835 50.0888V50.0868ZM51.4917 21.2411L50.1901 20.9046C46.7612 20.0572 43.2707 19.489 39.7521 19.2054L39.1054 19.1511L38.7397 18.6182C36.7412 15.6824 34.51 12.9159 32.0682 10.3461L31.1322 9.37634L32.0682 8.40659C38.9442 1.26519 45.4979 -1.55418 49.5868 0.830473C53.7521 3.25692 54.5806 10.2249 51.8574 19.9348L51.4917 21.2411ZM40.6343 16.4843C43.6319 16.7543 46.6087 17.2235 49.5455 17.8888C51.4401 10.4004 50.9442 4.84738 48.2107 3.24856C45.4876 1.66019 40.3657 4.09709 34.9855 9.39933C37.016 11.6374 38.9028 14.0046 40.6343 16.4864V16.4843ZM19.8533 59.502C18.6901 59.5229 17.5393 59.2303 16.5289 58.6431C12.3636 56.2166 11.5351 49.2591 14.2583 39.5512L14.624 38.245L15.9256 38.571C19.1116 39.3882 22.6198 39.9525 26.3533 40.2702L27 40.335L27.3657 40.8679C29.3642 43.8037 31.5954 46.5701 34.0372 49.14L34.9731 50.1097L34.0372 51.0795C28.8182 56.5218 23.7707 59.5041 19.8533 59.5041V59.502ZM16.5723 41.5973C14.6777 49.0857 15.1736 54.6387 17.907 56.2375C20.6302 57.805 25.7417 55.389 31.1322 50.0868C29.0962 47.8499 27.2091 45.4789 25.4835 42.9892C22.4856 42.727 19.5085 42.2612 16.5723 41.5952V41.5973ZM33.0579 43.3487C30.7872 43.3487 28.4628 43.2505 26.1281 43.054L25.4814 42.9997L25.1054 42.4563C23.7866 40.5395 22.5479 38.5677 21.3926 36.5459C20.2348 34.524 19.1616 32.4538 18.1756 30.3408L17.8967 29.743L18.1756 29.1453C20.1509 24.9202 22.4687 20.8678 25.1054 17.0298L25.4814 16.4864L26.1281 16.4321C30.7398 16.0391 35.3759 16.0391 39.9876 16.4321L40.6343 16.4864L41.0103 17.0298C43.6504 20.8656 45.9684 24.9183 47.9401 29.1453L48.219 29.743L47.9401 30.3408C45.9724 34.5699 43.6542 38.6229 41.0103 42.4563L40.6343 42.9997L39.9876 43.054C37.6827 43.2491 35.3708 43.3474 33.0579 43.3487ZM27.0103 40.3224C31.0785 40.638 35.0372 40.638 39.1157 40.3224C41.3903 36.9532 43.4118 33.4161 45.1632 29.741C43.4192 26.0597 41.3938 22.5218 39.1054 19.1595C35.0797 18.8439 31.036 18.8439 27.0103 19.1595C24.7203 22.5208 22.6948 26.0588 20.9525 29.741C22.7044 33.418 24.7295 36.9553 27.0103 40.3224Z" fill="black"/>
</svg>
