<svg width="80" height="60" viewBox="0 0 80 60" fill="none" xmlns="http://www.w3.org/2000/svg">
<path d="M37.4154 44.9859C37.3782 45.0603 37.341 45.1198 37.4154 44.9859V44.9859ZM68.295 34.2016C65.801 34.2016 63.3417 34.7719 61.1056 35.8751C60.3742 34.4 59.6181 33.1108 59.4942 32.144C59.3454 31.016 59.1843 30.3466 59.3578 29.0079C59.5314 27.6691 60.3123 25.7726 60.2999 25.6362C60.2875 25.4999 60.1263 24.8181 58.5273 24.8057C56.9283 24.7933 55.5524 25.1156 55.3913 25.5371C55.1083 26.3071 54.8886 27.0989 54.7343 27.9046C54.4492 29.3549 51.5388 34.5363 49.8902 37.2386C49.3448 36.185 48.8861 35.2553 48.787 34.5115C48.6382 33.3835 48.4771 32.7142 48.6506 31.3754C48.8241 30.0367 49.6051 28.1402 49.5927 28.0038C49.5803 27.8675 49.4191 27.1857 47.8226 27.1733C46.2261 27.1609 44.8477 27.4832 44.6865 27.9046C44.5254 28.3261 44.3519 29.3177 44.0296 30.2722C43.7073 31.2267 39.8275 39.8541 38.8136 42.0977C38.2929 43.2381 37.8467 44.1554 37.5244 44.7752C37.4748 44.8743 37.4377 44.9363 37.4129 44.9859C37.4501 44.9239 37.4748 44.8619 37.4748 44.8867C37.2021 45.4197 37.041 45.7172 37.041 45.7172V45.7296C36.8303 46.1263 36.5948 46.4858 36.4832 46.4858C36.4088 46.4858 36.2477 45.4445 36.5204 44.019C37.103 41.0193 38.4789 36.3585 38.4665 36.1973C38.4541 36.1106 38.7268 35.3049 37.5616 34.871C36.4336 34.462 36.0246 35.1437 35.9254 35.1437C35.8263 35.1437 35.7519 35.3916 35.7519 35.3916C35.7519 35.3916 37.0038 30.1359 33.3472 30.1359C31.0664 30.1359 27.8931 32.6398 26.3338 34.9082C25.3546 35.4412 23.2349 36.594 21.0037 37.8212L18.4379 39.2343C18.3759 39.1723 18.3263 39.1103 18.2643 39.0484C13.8268 34.3132 5.63583 30.9664 5.9829 24.6074C6.10686 22.2894 6.91257 16.2031 21.7351 8.81529C33.8826 2.76619 43.5933 4.42721 45.2666 8.12113C47.6714 13.3893 40.0729 23.1943 27.4593 24.6074C22.6499 25.1404 20.1237 23.281 19.4915 22.5869C18.8345 21.8555 18.7354 21.8184 18.4875 21.9547C18.0784 22.1778 18.3387 22.8224 18.4875 23.2067C18.8593 24.1859 20.4088 25.9213 23.049 26.789C25.3669 27.5452 31.0044 27.9666 37.8194 25.3263C45.4774 22.3762 51.4396 14.1578 49.6893 7.27822C47.9094 0.287054 36.3171 -2.00615 25.357 1.8861C18.8246 4.20409 11.7617 7.84842 6.68201 12.596C0.645413 18.2484 -0.318955 23.1695 0.0777003 25.2272C1.49078 32.5282 11.5534 37.2882 15.5795 40.8085L15.0217 41.1184C13.0012 42.1225 5.3309 46.1387 3.4096 50.378C1.2404 55.1875 3.76907 58.6335 5.42759 59.1046C10.6089 60.5425 15.9117 57.9518 18.7626 53.7001C21.6136 49.4483 21.2665 43.8951 19.9526 41.3664C19.9402 41.3292 19.9154 41.3044 19.903 41.2672C21.3904 40.3862 22.8904 39.5267 24.4026 38.6889C23.9068 40.0276 23.5473 41.6391 23.3614 43.9694C23.1382 46.6965 24.2662 50.2293 25.7289 51.6176C26.3735 52.225 27.1519 52.2374 27.6378 52.2374C29.3484 52.2374 30.1169 50.8243 30.9722 49.1384C32.0258 47.0808 32.9555 44.6884 32.9555 44.6884C32.9555 44.6884 31.7903 51.1589 34.9759 51.1589C36.1411 51.1589 37.3063 49.6591 37.8269 48.8905V48.9029C37.8269 48.9029 37.8517 48.8533 37.9137 48.7542C38.0376 48.5682 38.0996 48.4567 38.0996 48.4567V48.4195C38.5706 47.6138 39.5994 45.7668 41.1489 42.7175C43.1569 38.7757 45.0757 33.8546 45.0757 33.8546C45.2617 34.9355 45.5195 36.004 45.8443 37.0527C46.1913 38.2302 46.9227 39.5194 47.5053 40.7714C47.0342 41.4159 46.7491 41.7878 46.7491 41.7878C46.7491 41.7977 46.7541 41.8052 46.7615 41.8126C46.3897 42.3084 45.9682 42.8414 45.5344 43.3621C43.9502 45.2462 42.0637 47.4031 41.8157 48.0228C41.5183 48.7542 41.5926 49.2996 42.1628 49.721C42.5843 50.0433 43.328 50.0929 44.1089 50.0309C45.5344 49.9318 46.5384 49.5847 47.0218 49.3616C47.9135 49.0421 48.7562 48.5999 49.5257 48.0476C51.0752 46.9072 52.0172 45.271 51.9305 43.1141C51.8809 41.9242 51.4966 40.7342 51.0256 39.6186C51.1619 39.4202 51.3107 39.2095 51.447 38.9988C53.0601 36.5919 54.5135 34.0817 55.7978 31.4845C55.9838 32.5654 56.2391 33.6339 56.5664 34.6826C56.8638 35.6866 57.4464 36.7899 57.9794 37.8683C55.6739 39.74 54.2484 41.9093 53.7551 43.3348C52.8378 45.9751 53.5567 47.1651 54.9078 47.4378C55.5152 47.5617 56.3829 47.2766 57.0275 47.0039C57.9844 46.6841 58.8868 46.2205 59.7024 45.628C61.2518 44.4876 62.7517 42.8885 62.6501 40.7193C62.6129 39.74 62.3402 38.7608 61.9807 37.8187C63.9268 37.0006 66.4555 36.5543 69.6783 36.9262C76.5801 37.7319 77.9312 42.0456 77.6709 43.843C77.4106 45.6404 75.9603 46.6444 75.4769 46.9419C74.9935 47.2394 74.8447 47.351 74.8819 47.5741C74.9439 47.8964 75.167 47.884 75.5761 47.8096C76.1462 47.7105 79.1955 46.3469 79.3319 43.0125C79.5302 38.798 75.4769 34.162 68.2999 34.1992L68.295 34.2016ZM15.0961 52.1382C12.8153 54.6297 9.61974 55.5718 8.24384 54.7785C6.76878 53.9207 7.35137 50.2541 10.1627 47.5989C11.8732 45.9875 14.0796 44.5 15.5423 43.5827C15.877 43.3844 16.3604 43.0869 16.9554 42.7274C17.0037 42.6964 17.0534 42.6675 17.1041 42.6406C17.2157 42.5663 17.3396 42.5043 17.4636 42.4299C18.4899 46.1982 17.5008 49.5202 15.0961 52.1357V52.1382ZM31.7506 40.8085C30.9573 42.7547 29.2864 47.7129 28.2675 47.4526C27.3998 47.2295 26.8668 43.4488 28.094 39.7301C28.7137 37.8584 30.0276 35.6271 30.8086 34.7595C32.0605 33.3587 33.4364 32.9125 33.7587 33.4703C34.1925 34.2016 32.2464 39.5938 31.7506 40.8085ZM45.5096 47.3783C45.1749 47.5518 44.865 47.6634 44.7163 47.5766C44.6047 47.5146 44.8526 47.2791 44.8526 47.2791C44.8526 47.2791 46.5756 45.4321 47.2574 44.5892C47.654 44.0934 48.1126 43.5108 48.6085 42.8662C48.6085 42.9282 48.6209 42.9902 48.6209 43.0646C48.606 45.2834 46.474 46.7833 45.5071 47.3783H45.5096ZM56.1201 44.9611C55.8722 44.7876 55.9094 44.205 56.7399 42.3952C57.0622 41.6886 57.8059 40.4987 59.095 39.3582C59.2413 39.7896 59.3206 40.2408 59.3305 40.697C59.3181 43.486 57.3225 44.5273 56.1201 44.9611Z" fill="black"/>
</svg>
