<svg width="100" height="60" viewBox="0 0 100 60" fill="none" xmlns="http://www.w3.org/2000/svg">
<path d="M24.7934 19.8348C28.0983 6.61249 36.3645 0 49.5868 0C69.4215 0 71.9008 14.876 81.8182 17.3553C88.4307 19.0091 94.2149 16.5298 99.1736 9.91729C95.8687 23.1396 87.6024 29.7521 74.3802 29.7521C54.5455 29.7521 52.0661 14.876 42.1488 12.3968C35.5363 10.743 29.7521 13.2223 24.7934 19.8348ZM0 49.5868C3.30488 36.3646 11.5712 29.7521 24.7934 29.7521C44.6281 29.7521 47.1074 44.6281 57.0248 47.1074C63.6373 48.7611 69.4215 46.2819 74.3802 39.6694C71.0753 52.8916 62.809 59.5041 49.5868 59.5041C29.7521 59.5041 27.2727 44.6281 17.3554 42.1488C10.7429 40.4951 4.95868 42.9743 0 49.5868Z" fill="black"/>
</svg>
