<svg width="212" height="212" viewBox="0 0 212 212" fill="none" xmlns="http://www.w3.org/2000/svg">
<path d="M113.965 17.3795C98.0266 17.3795 82.4462 22.1058 69.194 30.9606C55.9419 39.8154 45.613 52.4011 39.5137 67.1262C33.4144 81.8512 31.8186 98.0543 34.928 113.686C38.0374 129.318 45.7124 143.677 56.9824 154.947C68.2525 166.217 82.6114 173.892 98.2435 177.002C113.875 180.111 130.079 178.515 144.804 172.416C159.529 166.317 172.114 155.988 180.969 142.736C189.824 129.483 194.55 113.903 194.55 97.9648H167.29C167.29 108.512 164.163 118.821 158.303 127.591C152.444 136.36 144.115 143.195 134.372 147.231C124.628 151.267 113.906 152.323 103.562 150.265C93.2176 148.208 83.716 143.129 76.2583 135.671C68.8007 128.214 63.722 118.712 61.6644 108.368C59.6068 98.024 60.6628 87.3021 64.6989 77.5582C68.7349 67.8143 75.5697 59.4861 84.339 53.6266C93.1083 47.7672 103.418 44.6397 113.965 44.6397L113.965 17.3795Z" fill="#FFFAF0"/>
</svg>
