<svg width="152" height="152" viewBox="0 0 152 152" fill="none" xmlns="http://www.w3.org/2000/svg">
<path d="M139.098 81.4821C139.098 70.0866 135.719 58.9471 129.388 49.4721C123.057 39.9971 114.059 32.6122 103.531 28.2514C93.0028 23.8905 81.418 22.7495 70.2415 24.9726C59.065 27.1958 48.7987 32.6832 40.7409 40.7411C32.6831 48.7989 27.1956 59.0652 24.9725 70.2417C22.7493 81.4182 23.8903 93.003 28.2512 103.531C32.612 114.059 39.9969 123.058 49.4719 129.389C58.9469 135.72 70.0865 139.099 81.4819 139.099L81.4819 119.608C73.9413 119.608 66.57 117.372 60.3002 113.183C54.0304 108.993 49.1436 103.039 46.258 96.0724C43.3723 89.1057 42.6173 81.4398 44.0884 74.0441C45.5595 66.6483 49.1906 59.8549 54.5227 54.5229C59.8547 49.1908 66.6481 45.5596 74.0439 44.0885C81.4396 42.6174 89.1055 43.3725 96.0722 46.2581C103.039 49.1438 108.993 54.0305 113.183 60.3003C117.372 66.5702 119.608 73.9415 119.608 81.4821L139.098 81.4821Z" fill="#FF9FBC"/>
</svg>
